<?xml version="1.0" encoding="utf-8"?>
<!-- Generator: Adobe Illustrator 17.0.0, SVG Export Plug-In . SVG Version: 6.00 Build 0)  -->
<!DOCTYPE svg PUBLIC "-//W3C//DTD SVG 1.1//EN" "http://www.w3.org/Graphics/SVG/1.1/DTD/svg11.dtd">
<svg version="1.1" id="Layer_1" xmlns="http://www.w3.org/2000/svg" xmlns:xlink="http://www.w3.org/1999/xlink" x="0px" y="0px"
	 width="36px" height="36px" viewBox="0 0 36 36" enable-background="new 0 0 36 36" xml:space="preserve">
<g>
	<circle fill="none" stroke="#FFFFFF" stroke-width="2" stroke-miterlimit="10" cx="18" cy="18" r="17"/>
	<path fill="#FFFFFF" d="M28.876,12.201c-0.776,0.344-1.611,0.577-2.487,0.682c0.894-0.536,1.58-1.384,1.904-2.395
		c-0.837,0.496-1.763,0.856-2.749,1.051c-0.79-0.841-1.915-1.367-3.16-1.367c-2.391,0-4.33,1.938-4.33,4.329
		c0,0.339,0.038,0.67,0.112,0.987c-3.598-0.181-6.788-1.904-8.924-4.524c-0.373,0.639-0.586,1.383-0.586,2.177
		c0,1.502,0.764,2.827,1.926,3.604c-0.71-0.023-1.377-0.217-1.961-0.542c0,0.018,0,0.036,0,0.054c0,2.098,1.492,3.847,3.473,4.245
		c-0.363,0.099-0.746,0.152-1.141,0.152c-0.279,0-0.55-0.027-0.815-0.078c0.551,1.72,2.15,2.972,4.044,3.007
		c-1.482,1.161-3.349,1.853-5.377,1.853c-0.349,0-0.694-0.021-1.033-0.061c1.916,1.228,4.192,1.945,6.637,1.945
		c7.964,0,12.318-6.597,12.318-12.318c0-0.188-0.004-0.374-0.013-0.56C27.561,13.832,28.295,13.069,28.876,12.201z"/>
</g>
</svg>
