<?xml version="1.0" encoding="utf-8"?>
<!-- Generator: Adobe Illustrator 17.0.0, SVG Export Plug-In . SVG Version: 6.00 Build 0)  -->
<!DOCTYPE svg PUBLIC "-//W3C//DTD SVG 1.1//EN" "http://www.w3.org/Graphics/SVG/1.1/DTD/svg11.dtd">
<svg version="1.1" id="Layer_1" xmlns="http://www.w3.org/2000/svg" xmlns:xlink="http://www.w3.org/1999/xlink" x="0px" y="0px"
	 width="36px" height="36px" viewBox="0 0 36 36" enable-background="new 0 0 36 36" xml:space="preserve">
<g>
	<circle fill="none" stroke="#FFFFFF" stroke-width="2" stroke-miterlimit="10" cx="18" cy="18" r="17"/>
	<path fill="#FFFFFF" d="M22.775,23.708c-0.371,0.177-1.081,0.331-1.61,0.345c-1.598,0.043-1.907-1.122-1.921-1.968v-6.213h4.008
		v-3.021h-3.993V7.766c0,0-2.876,0-2.924,0c-0.048,0-0.132,0.042-0.143,0.149c-0.171,1.556-0.9,4.287-3.927,5.378v2.578h2.02v6.522
		c0,2.232,1.647,5.404,5.995,5.33c1.467-0.025,3.096-0.64,3.456-1.169L22.775,23.708z"/>
</g>
</svg>
