<?xml version="1.0" encoding="utf-8"?>
<!-- Generator: Adobe Illustrator 17.0.0, SVG Export Plug-In . SVG Version: 6.00 Build 0)  -->
<!DOCTYPE svg PUBLIC "-//W3C//DTD SVG 1.1//EN" "http://www.w3.org/Graphics/SVG/1.1/DTD/svg11.dtd">
<svg version="1.1" id="Layer_1" xmlns="http://www.w3.org/2000/svg" xmlns:xlink="http://www.w3.org/1999/xlink" x="0px" y="0px"
	 width="36px" height="36px" viewBox="0 0 36 36" enable-background="new 0 0 36 36" xml:space="preserve">
<g>
	<circle fill="none" stroke="#FFFFFF" stroke-width="2" stroke-miterlimit="10" cx="18" cy="18" r="17"/>
	<path fill-rule="evenodd" clip-rule="evenodd" fill="#FFFFFF" d="M17.889,6.72c-6.292,0-11.394,5.102-11.394,11.396
		c0,5.034,3.265,9.305,7.793,10.812c0.57,0.105,0.778-0.247,0.778-0.549c0-0.271-0.01-0.987-0.015-1.938
		c-3.17,0.689-3.839-1.527-3.839-1.527c-0.518-1.316-1.265-1.667-1.265-1.667c-1.035-0.707,0.078-0.693,0.078-0.693
		c1.144,0.081,1.745,1.174,1.745,1.174c1.016,1.741,2.667,1.239,3.316,0.947c0.104-0.736,0.398-1.239,0.723-1.523
		c-2.53-0.288-5.19-1.265-5.19-5.632c0-1.244,0.444-2.261,1.173-3.058c-0.117-0.288-0.508-1.447,0.112-3.016
		c0,0,0.957-0.306,3.134,1.168c0.909-0.253,1.884-0.379,2.853-0.384c0.968,0.004,1.943,0.131,2.853,0.384
		c2.175-1.475,3.13-1.168,3.13-1.168c0.622,1.569,0.231,2.727,0.113,3.016c0.73,0.797,1.171,1.814,1.171,3.058
		c0,4.378-2.664,5.341-5.203,5.623c0.409,0.352,0.774,1.047,0.774,2.11c0,1.523-0.014,2.752-0.014,3.126
		c0,0.305,0.205,0.659,0.784,0.548c4.524-1.51,7.786-5.778,7.786-10.811C29.285,11.821,24.183,6.72,17.889,6.72z"/>
</g>
</svg>
