<?xml version="1.0" standalone="no"?>
<!DOCTYPE svg PUBLIC "-//W3C//DTD SVG 1.1//EN" "http://www.w3.org/Graphics/SVG/1.1/DTD/svg11.dtd" >
<svg xmlns="http://www.w3.org/2000/svg">
<metadata></metadata>
<defs>
<font id="mrseavesbold" horiz-adv-x="0" >
<font-face units-per-em="2048" ascent="1638" descent="-410" />
<missing-glyph horiz-adv-x="477" />
<glyph />
<glyph />
<glyph unicode="&#xd;" />
<glyph horiz-adv-x="1460" d="M78 0v59q45 0 73.5 3t52 14t35.5 26t20 44t10.5 63.5t2.5 89.5v252h-186v125h186v254q0 55 -2.5 89.5t-10.5 63.5t-20 44t-35.5 25.5t-52 13.5t-73.5 3v60h676q173 0 306 -48t214 -133t121.5 -194.5t40.5 -239.5t-40.5 -239t-121.5 -194t-214 -133t-306 -48h-676z M528 324q0 -63 4.5 -101t15.5 -66t35 -41t56 -18.5t86 -5.5h20q96 0 169 33t115.5 84t69.5 122.5t36.5 139t9.5 143.5t-9.5 143.5t-36.5 139.5t-69.5 123t-115.5 84t-169 33h-217v-461h189v-125h-189v-227z" />
<glyph horiz-adv-x="1091" d="M113 350q0 103 60 192t159 140t211 51q113 0 176 -53q-7 216 -57 346l-242 -180l-55 76l249 188q-57 76 -147 76q-40 0 -74 -13.5t-54 -32.5t-40 -40t-33 -36t-32.5 -19.5t-38.5 8.5q-48 31 -14 87q35 61 130 100q75 30 158 30q132 0 244 -88l161 121l58 -76l-154 -115 q87 -103 133.5 -254.5t46.5 -312.5q0 -99 -16 -182t-42.5 -141.5t-63 -104.5t-75 -74t-82 -46t-80.5 -25t-73 -7q-170 0 -291.5 113.5t-121.5 271.5zM367 352q0 -286 159 -286q27 0 50.5 10t51 42.5t46.5 85.5t32 147t13 218q-22 33 -71 49.5t-105 16.5q-83 0 -129.5 -70 t-46.5 -213z" />
<glyph horiz-adv-x="1296" d="M78 0v59q45 0 73.5 3t52 14t35.5 26t20 44t10.5 63.5t2.5 89.5v209l-131 -88l-51 76l182 122v312q0 55 -2.5 89.5t-10.5 63.5t-20 44t-35.5 25.5t-52 13.5t-73.5 3v60h647v-60q-54 0 -86 -5.5t-56 -19t-35 -42.5t-15.5 -68t-4.5 -104v-139l127 86l54 -76l-181 -119v-350 q0 -54 2.5 -89t11 -64t21 -44.5t36 -26t52.5 -13.5t74 -3h236q70 0 112.5 8t67 30t35 46.5t22.5 71.5l10 41h60l-17 -289h-1173z" />
<glyph horiz-adv-x="606" d="M-6 496l194 129v288q0 106 -13 155t-45 67t-103 18v59l391 52v-484l141 97l53 -76l-194 -131v-371q0 -106 13 -155t45.5 -67t103.5 -18v-59h-553v59q71 0 103 18t45 67t13 155v217l-141 -96z" />
<glyph horiz-adv-x="1019" d="M100 -35v451h60q30 -160 139.5 -259.5t239.5 -99.5q92 0 148 52.5t56 150.5q0 57 -40.5 114t-110.5 93l-197 102q-69 35 -116.5 69.5t-85.5 80t-56 104.5t-18 133q0 127 104 217.5t252 90.5q83 0 139 -22t111 -62q46 37 59 94h58v-451h-60q-6 68 -22.5 125t-49 110.5 t-89.5 84.5t-134 31q-66 0 -115.5 -45.5t-49.5 -118.5q0 -51 42.5 -110.5t120.5 -98.5l197 -101q118 -62 191 -154.5t73 -207.5q0 -108 -58 -194.5t-150.5 -132.5t-198.5 -46q-69 0 -132.5 20.5t-115 45.5t-72.5 30q-46 -37 -59 -96h-60zM219 1698l33 28l262 -170l262 170 l31 -28l-293 -318z" />
<glyph horiz-adv-x="716" d="M61 1153l33 29l262 -170l262 170l31 -29l-293 -317zM86 -35v299h59q0 -73 76.5 -143t173.5 -70q49 0 78 22t29 58q0 35 -30.5 61.5t-100.5 59.5l-115 51q-76 35 -115 91.5t-39 117.5q0 55 22.5 96.5t60 64t77.5 33.5t82 11q41 0 81.5 -8t63.5 -16t42 -12t26.5 4t7.5 32 h60v-238h-60q0 62 -60 109t-128 47q-43 0 -72 -19.5t-29 -50.5q0 -33 29 -53.5t113 -58.5l100 -47q75 -35 116.5 -91.5t41.5 -117.5q0 -78 -43 -132t-104 -77t-132 -23q-34 0 -67.5 7.5t-57 18t-45.5 20.5t-36.5 15t-25 2.5t-15.5 -18t-5 -45.5h-59z" />
<glyph horiz-adv-x="1296" d="M-68 1169v60h695v-60q-109 0 -136 -36.5t27 -118.5l230 -346l229 346q57 83 33 119t-144 36v60h496v-60q-64 0 -105 -8t-75 -33.5t-56 -53t-59 -85.5l-293 -442v-248q0 -66 4.5 -104.5t15 -68t34 -42.5t55.5 -19t86 -6v-59h-639v59q67 0 103 8t58.5 36t28.5 71t6 125v242 l-297 448q-72 109 -130.5 144.5t-166.5 35.5zM705 1399l247 231q36 33 61.5 47.5t55.5 14.5q35 0 55.5 -24.5t20.5 -51.5t-19.5 -48.5t-42.5 -33.5l-366 -154z" />
<glyph horiz-adv-x="733" d="M-68 623v59h449v-59q-65 0 -80 -23t12 -80l119 -266l111 266q24 56 10.5 79.5t-70.5 23.5v59h303v-59q-54 0 -88 -24t-57 -79l-412 -997q-33 -76 -77 -76q-29 0 -55.5 17.5t-26.5 58.5q0 26 16 47t37.5 37t51 55t50.5 92l88 217l-245 549q-43 103 -136 103zM332 852 l248 231q37 33 61.5 47.5t54.5 14.5q35 0 55.5 -24.5t20.5 -51.5q0 -50 -61 -82l-367 -153z" />
<glyph unicode="&#x9;" />
<glyph unicode="&#xa;" />
<glyph horiz-adv-x="1044" d="M8 -453q54 0 83.5 8t48.5 35.5t24.5 71.5t5.5 125v1126q0 81 -5.5 125t-24.5 71.5t-48.5 35.5t-83.5 8v59l393 52v-607q77 60 168 60q169 0 271 -107.5t102 -267.5t-102 -268.5t-271 -108.5q-96 0 -168 62v-240q0 -81 5.5 -125t24.5 -71.5t48.5 -35.5t83.5 -8v-59h-555 v59zM401 242q0 -76 41.5 -128.5t96.5 -52.5q75 0 114 78.5t39 202.5q0 123 -39 201t-114 78q-56 0 -97 -51.5t-41 -129.5v-198z" />
<glyph horiz-adv-x="1224" d="M78 0v59q45 0 73.5 3t52 14t35.5 26t20 44t10.5 63.5t2.5 89.5v631q0 55 -2.5 89.5t-10.5 63.5t-20 44t-35.5 25.5t-52 13.5t-73.5 3v60h647v-60q-118 0 -155.5 -35t-41.5 -157h236q186 0 300 -99.5t114 -246.5q0 -148 -113.5 -247t-300.5 -99h-236q1 -145 36.5 -185.5 t160.5 -40.5v-59h-647zM528 377h113q128 0 195 71t67 183q0 111 -67 182.5t-195 71.5h-113v-508z" />
<glyph horiz-adv-x="1212" d="M88 0v49l635 1104h-322q-56 0 -94.5 -6.5t-62 -16.5t-39.5 -31.5t-24 -42t-17 -57.5l-10 -41h-43l18 271h907v-45l-641 -1108h396q56 0 94 6.5t62 16t39.5 31.5t23.5 42.5t18 58.5l10 41h43l-18 -272h-975zM305 1698l33 28l262 -170l262 170l31 -28l-293 -318z" />
<glyph horiz-adv-x="681" d="M37 0v35l307 565h-12q-92 0 -140 -13.5t-65.5 -36.5t-30.5 -71l-10 -41h-43l14 244h568v-33l-306 -567h39q92 0 140.5 14t65.5 36.5t30 70.5l10 41h43l-16 -244h-594zM41 1153l33 29l262 -170l262 170l31 -29l-293 -317z" />
<glyph />
<glyph />
<glyph />
<glyph />
<glyph />
<glyph horiz-adv-x="1546" d="M111 1159v55l333 48v-447q0 -103 21 -133.5t92 -30.5v-55h-420v55q69 0 90 30.5t21 133.5v191q0 99 -28.5 127.5t-108.5 25.5zM336 6l756 1264l82 -45l-758 -1262zM911 503.5q9 45.5 38 84.5t84 63.5t122 24.5q111 0 193 -56t82 -147q0 -128 -123 -211l-183 -129h326 l-18 -133h-512v47l272 258q72 69 72 152q0 125 -131 125q-42 0 -73.5 -23.5t-39 -67.5t26.5 -106l-56 -51q-48 33 -68.5 78.5t-11.5 91z" />
<glyph horiz-adv-x="1546" d="M111 1159v55l333 48v-447q0 -103 21 -133.5t92 -30.5v-55h-420v55q69 0 90 30.5t21 133.5v191q0 99 -28.5 127.5t-108.5 25.5zM336 6l756 1264l82 -45l-758 -1262zM817 190v52l400 452h71v-420q45 2 68.5 23.5t40.5 83.5l8 35h59l-12 -226h-164q0 -80 22 -104.5t95 -24.5 v-61h-424v61q75 0 97 24.5t22 104.5h-283zM944 274h156v177z" />
<glyph horiz-adv-x="688" d="M111 1159v55l333 48v-447q0 -103 21 -133.5t92 -30.5v-55h-420v55q69 0 90 30.5t21 133.5v191q0 99 -28.5 127.5t-108.5 25.5z" />
<glyph horiz-adv-x="1546" d="M98 948l37 281h475v-47l-184 -178q77 -20 139 -90.5t62 -139.5q0 -93 -80 -157t-215 -64q-118 0 -191 67q-47 44 -40 81q5 30 49 30q16 0 28 -11t22 -26.5t24 -31t41.5 -26.5t66.5 -11q64 0 94.5 42.5t30.5 106.5q0 52 -32.5 86t-84.5 47q-20 -25 -33 -47 q-24 -42 -57 -33q-25 6 -27 31q-2 21 17 41l157 162h-114q-112 0 -129 -76l-11 -37h-45zM362 6l756 1264l80 -45l-756 -1262zM817 190v52l400 452h71v-420q45 2 68.5 23.5t40.5 83.5l8 35h59l-12 -226h-164q0 -80 22 -104.5t95 -24.5v-61h-424v61q75 0 97 24.5t22 104.5 h-283zM944 274h156v177z" />
<glyph horiz-adv-x="688" d="M98 948l37 281h475v-47l-184 -178q77 -20 139 -90.5t62 -139.5q0 -93 -80 -157t-215 -64q-118 0 -191 67q-47 44 -40 81q5 30 49 30q16 0 28 -11t22 -26.5t24 -31t41.5 -26.5t66.5 -11q64 0 94.5 42.5t30.5 106.5q0 52 -32.5 86t-84.5 47q-20 -25 -33 -47 q-24 -42 -57 -33q-25 6 -27 31q-2 21 17 41l157 162h-114q-112 0 -129 -76l-11 -37h-45z" />
<glyph horiz-adv-x="688" d="M80.5 1021q-16.5 60 7 113.5t85.5 91.5t146 38q110 0 192.5 -56.5t82.5 -146.5q0 -124 -123 -213l-182 -127h325l-18 -133h-512v45l270 260q72 69 72 149q0 127 -129 127q-42 0 -74 -24t-39.5 -68t27.5 -106l-55 -51q-59 41 -75.5 101z" />
<glyph horiz-adv-x="432" d="M170 0v614h92v-614h-92zM170 836v614h92v-614h-92z" />
<glyph horiz-adv-x="937" d="M170 375v157h598v-157h-598z" />
<glyph />
<glyph />
<glyph />
<glyph unicode=" "  horiz-adv-x="477" />
<glyph unicode="&#x09;" horiz-adv-x="477" />
<glyph unicode="&#xa0;" horiz-adv-x="477" />
<glyph unicode="!" horiz-adv-x="673" d="M184 1106q0 64 45 111t109 47t112 -47.5t48 -110.5q0 -54 -11.5 -100t-28 -91.5t-34 -104.5t-32.5 -166t-19 -249h-70q-5 173 -25 297t-40.5 176.5t-37 113t-16.5 124.5zM223 100q0 50 33 84.5t82 34.5q50 0 84.5 -34.5t34.5 -84.5q0 -47 -35 -81.5t-84 -34.5t-82 34 t-33 82z" />
<glyph unicode="&#x22;" horiz-adv-x="876" d="M117 1124q0 57 39 98.5t94 41.5q56 0 96.5 -41.5t40.5 -98.5q0 -24 -14.5 -68.5t-33.5 -95t-39 -142t-28 -195.5h-47q-8 104 -27 195.5t-36.5 142t-31 95t-13.5 68.5zM492 1124q0 57 39 98.5t94 41.5q56 0 97.5 -41.5t41.5 -98.5q0 -27 -23.5 -89t-52.5 -170.5 t-39 -241.5h-49q-8 104 -26.5 195.5t-36 142t-31.5 95t-14 68.5z" />
<glyph unicode="#" horiz-adv-x="890" d="M55 518l25 144h141l33 192h-141l26 141h142l38 234h117l-41 -234h185l38 234h115l-39 -234h144l-25 -141h-143l-33 -192h143l-26 -144h-144l-37 -233h-116l41 233h-185l-39 -233h-114l39 233h-144zM338 662h182l33 192h-182z" />
<glyph unicode="$" horiz-adv-x="1019" d="M84 271q0 38 33 53q26 14 49.5 5t36 -29t33.5 -49.5t41.5 -57.5t60 -52.5t88.5 -34.5v443l-98 51q-97 49 -159.5 131t-62.5 187q0 121 90.5 202.5t229.5 89.5v189h106v-193q152 -20 233 -109q57 -62 45 -117q-10 -39 -52 -52q-27 -9 -47.5 3t-36.5 37t-33 53t-45 55.5 t-64 39.5v-379l144 -73q102 -54 156.5 -133.5t54.5 -163.5q0 -152 -101.5 -247t-253.5 -104v-186h-106v190q-164 22 -269 122q-72 68 -73 129zM301 975q0 -59 29.5 -100t95.5 -80v327q-54 -12 -89.5 -52t-35.5 -95zM532 100q71 9 115.5 54.5t44.5 117.5q0 130 -160 222v-394 z" />
<glyph unicode="%" horiz-adv-x="1562" d="M88 969q0 121 100 208t238 87t237 -87t99 -208q0 -120 -99 -206.5t-237 -86.5t-238 86.5t-100 206.5zM291 969q0 -83 35.5 -149t99.5 -66t98.5 66t34.5 149q0 84 -34.5 149.5t-98.5 65.5t-99.5 -65.5t-35.5 -149.5zM365 6l757 1264l80 -45l-756 -1262zM801 262 q0 120 99 206.5t237 86.5t237 -86.5t99 -206.5q0 -121 -99 -208t-237 -87t-237 87t-99 208zM1001 262q0 -84 36 -149.5t100 -65.5t99.5 65.5t35.5 149.5q0 83 -35.5 149t-99.5 66t-100 -66.5t-36 -148.5z" />
<glyph unicode="&#x26;" horiz-adv-x="1345" d="M94 324q0 56 18 104t54.5 88t74.5 70t93 65q-119 177 -119 318q0 132 109 213.5t268 81.5q138 0 232 -62t94 -174q0 -43 -16 -81.5t-39.5 -66t-62.5 -57t-72.5 -49.5t-83 -50t-81.5 -52q13 -18 28.5 -38.5t28.5 -37t36 -43.5t36 -42t43.5 -49.5t43 -48t51 -56t51.5 -56.5 q23 47 37 94q28 93 -7 127.5t-161 34.5v59h479v-59q-57 0 -91 -8t-61.5 -34t-45 -63t-42.5 -108q-12 -40 -45 -113q106 -112 199 -112q62 0 133 71l41 -38q-128 -187 -258 -187q-97 0 -230 113q-122 -113 -313 -113q-115 0 -208.5 39t-153.5 122t-60 198zM344 307 q0 -105 70.5 -175.5t169.5 -70.5q96 0 182 76q-252 267 -350 398q-72 -99 -72 -228zM449 1001q0 -134 61 -247q101 63 155 125.5t54 148.5q0 66 -35.5 102.5t-91.5 36.5q-64 0 -103.5 -51t-39.5 -115z" />
<glyph unicode="'" horiz-adv-x="501" d="M117 1124q0 57 39 98.5t94 41.5q56 0 96.5 -41.5t40.5 -98.5q0 -24 -14.5 -68.5t-33.5 -95t-39 -142t-28 -195.5h-47q-8 104 -27 195.5t-36.5 142t-31 95t-13.5 68.5z" />
<glyph unicode="(" horiz-adv-x="733" d="M137 604q0 125 39 244.5t111.5 224t154.5 190.5t187 173l55 -52q-319 -358 -319 -780t319 -780l-53 -51q-84 68 -152 135t-133.5 149.5t-110 165.5t-71.5 181.5t-27 199.5z" />
<glyph unicode=")" horiz-adv-x="733" d="M49 -176q322 361 322 780t-322 780l57 52q105 -87 187 -173t154.5 -190.5t111.5 -224t39 -244.5q0 -101 -27 -199.5t-71.5 -181.5t-110 -165.5t-133.5 -149.5t-152 -135z" />
<glyph unicode="*" horiz-adv-x="870" d="M92.5 771.5q12.5 46.5 50.5 68.5q20 11 54 13t81.5 6t92.5 20q-56 20 -129.5 24.5t-96.5 18.5q-38 22 -51.5 66.5t8.5 82.5t68.5 51t83.5 -10q21 -13 40.5 -41t47.5 -67.5t64 -71.5q-10 58 -44 124.5t-34 94.5q0 45 31.5 79t76.5 34q44 0 77.5 -34.5t33.5 -78.5 q0 -28 -35 -94t-45 -121q43 37 84.5 98t66.5 74q37 23 82.5 12t67.5 -49t9.5 -84t-50.5 -69q-22 -12 -97 -15t-132 -24q54 -19 127.5 -23.5t99.5 -19.5q38 -22 51.5 -66.5t-8.5 -81.5q-22 -38 -68.5 -51t-83.5 10q-20 12 -39.5 40t-47 67t-62.5 69q10 -57 43 -122.5 t33 -92.5q0 -45 -31.5 -78.5t-75.5 -33.5q-45 0 -78.5 33.5t-33.5 78.5q0 26 35 92t47 123q-36 -29 -64.5 -67.5t-48.5 -66t-41 -38.5q-37 -23 -82.5 -12t-67.5 49q-22 37 -9.5 83.5z" />
<glyph unicode="+" horiz-adv-x="937" d="M102 375v157h287v287h160v-287h287v-157h-287v-289h-160v289h-287z" />
<glyph unicode="," horiz-adv-x="641" d="M176 115q0 54 36.5 92.5t90.5 38.5q59 0 104.5 -43t45.5 -117q0 -96 -61 -199t-171 -172l-41 41q119 122 133 228h-10q-54 0 -90.5 38.5t-36.5 92.5z" />
<glyph unicode="-" horiz-adv-x="937" d="M170 340v158h598v-158h-598z" />
<glyph unicode="." horiz-adv-x="641" d="M176 115q0 54 36.5 92.5t90.5 38.5t93.5 -38.5t39.5 -92.5t-39.5 -92.5t-93.5 -38.5t-90.5 38.5t-36.5 92.5z" />
<glyph unicode="/" horiz-adv-x="712" d="M29 -2l555 1272l100 -39l-555 -1268z" />
<glyph unicode="0" horiz-adv-x="1212" d="M129 444q0 129 64 239t174 174.5t239 64.5t239 -64.5t174 -174.5t64 -239q0 -97 -38 -186t-102 -153t-152 -102t-185 -38t-185 38t-152 102t-102 153t-38 186zM311 444q0 -127 87 -216t208 -89t208 89t87 216q0 126 -87.5 216t-207.5 90t-207.5 -90t-87.5 -216z" />
<glyph unicode="1" horiz-adv-x="827" d="M102 0v59q45 0 74 3t52.5 13.5t36 26t21 44.5t11 64t2.5 89v291q0 81 -6 124t-29 70.5t-58.5 35t-103.5 7.5v60h623v-60q-68 0 -103.5 -7.5t-58.5 -35t-29 -70.5t-6 -124v-291q0 -54 2.5 -89t11 -64t21 -44.5t36 -26t52.5 -13.5t74 -3v-59h-623z" />
<glyph unicode="2" horiz-adv-x="1132" d="M129 649q-1 50 25 99.5t73.5 87.5t121 62t159.5 24q200 0 320 -79.5t120 -195.5q0 -55 -20.5 -103.5t-59 -87.5t-73 -65.5t-82.5 -56.5l-240 -146h485l-51 -350h-43q0 54 -8 83t-35 48t-71.5 25t-124.5 6h-473v49l385 316q71 60 105 118.5t34 137.5q0 86 -49.5 141 t-139.5 55q-70 0 -118 -36.5t-57 -101t36 -151.5l-96 -63q-60 36 -91 85t-32 99z" />
<glyph unicode="3" horiz-adv-x="1075" d="M125 649q-3 50 20.5 99.5t68.5 88t117 62t158 23.5q181 0 303.5 -74.5t122.5 -200.5q0 -52 -21 -101t-56 -86.5t-68.5 -64.5t-71.5 -49l-100 -57q153 -22 252.5 -116.5t99.5 -213.5q0 -105 -62.5 -184t-161.5 -118.5t-216 -39.5q-181 0 -298 97q-74 62 -81 127 q-6 55 45 69l8 2q25 5 46.5 -8t36.5 -35.5t36 -49.5t43.5 -51.5t61 -40.5t86.5 -16q84 0 129 70t45 178q0 98 -33 166t-107 111q-11 -8 -24.5 -22t-23 -26t-22 -23.5t-23 -17t-23 -4.5t-25.5 11q-15 12 -17.5 25t9 30t19 25.5t28.5 29.5l113 119q52 52 79 116t27 113 q0 95 -45.5 150t-122.5 55q-63 0 -108.5 -38.5t-55 -102.5t34.5 -148l-96 -63q-60 36 -92 85t-35 99z" />
<glyph unicode="4" horiz-adv-x="1157" d="M74 86v55l606 867h53v-830h6q56 0 94.5 6.5t62 16.5t39.5 32t24 42.5t18 58.5l10 41h60l-17 -289h-297v-135q0 -54 2.5 -89t11 -64t21 -44.5t36 -26t52.5 -13.5t74 -3v-59h-623v59q45 0 74 3t52.5 13.5t36 26t21 44.5t11 64t2.5 89v135h-430zM211 178h293v416z" />
<glyph unicode="5" horiz-adv-x="1026" d="M133 -147q0 59 57 59q27 0 45.5 -15t27.5 -37t22.5 -48.5t30 -48.5t51.5 -37t84 -15q82 0 136 94t54 240q0 145 -53.5 234.5t-136.5 89.5q-72 0 -116.5 -37.5t-80.5 -147.5h-92l63 703h365q56 0 93.5 6t61.5 16t39.5 31t23.5 42.5t17 59.5h47l-49 -385h-520l-31 -276 q26 37 88.5 63.5t124.5 26.5q177 0 294.5 -123.5t117.5 -302.5q0 -180 -122 -304t-308 -124q-75 0 -140.5 24.5t-106.5 61.5t-64 77t-23 73z" />
<glyph unicode="6" horiz-adv-x="1091" d="M129 545q0 133 32.5 260.5t92 232t154 168.5t208.5 64q133 0 231 -70q70 -50 71 -100q-1 -29 -27 -47q-29 -14 -44.5 -6.5t-38 30.5t-43 47t-60 43t-87.5 19q-68 0 -117 -42.5t-76.5 -117.5t-41 -159.5t-16.5 -186.5q63 53 176 53q112 0 211 -51t159 -140t60 -192 q0 -158 -122 -271.5t-292 -113.5q-52 0 -104.5 14t-113 53.5t-106 101.5t-76 168.5t-30.5 242.5zM367 569q0 -124 13 -218t32 -147t46 -85.5t50.5 -42.5t50.5 -10q160 0 160 286q0 283 -176 283q-55 0 -104.5 -16.5t-71.5 -49.5z" />
<glyph unicode="7" horiz-adv-x="980" d="M125 477l86 590h41q0 -54 8 -83.5t35.5 -48.5t71.5 -24.5t125 -5.5h399v-57l-457 -1151q-36 -82 -98 -82q-47 0 -69.5 45.5t7.5 114.5l449 899h-307q-70 0 -112.5 -7.5t-67.5 -29t-35.5 -46.5t-22.5 -73l-10 -41h-43z" />
<glyph unicode="8" horiz-adv-x="1116" d="M129 315q0 50 15.5 93t36.5 73t60.5 61.5t69 50t79.5 47.5q17 10 26 15q-109 88 -167.5 161t-58.5 153q0 82 51 151t133 106.5t175 37.5q141 0 250.5 -79.5t109.5 -183.5q0 -41 -13 -77.5t-31 -63t-50.5 -55t-58.5 -46.5t-68 -44q59 -46 89.5 -70t78 -69t71.5 -79 t43 -80.5t19 -92.5q0 -100 -60.5 -183t-159 -129.5t-210.5 -46.5q-113 0 -211.5 45.5t-158.5 126.5t-60 178zM344 299q0 -95 57.5 -166.5t157.5 -71.5q89 0 142 59.5t53 143.5q0 43 -19.5 86t-59 86t-77 75.5t-96.5 78.5q-75 -61 -116.5 -129t-41.5 -162zM424 1036 q0 -64 45 -124t129 -128q113 109 113 232q0 69 -45.5 110t-106.5 41q-59 0 -97 -40.5t-38 -90.5z" />
<glyph unicode="9" horiz-adv-x="1091" d="M119 539q0 158 121.5 270.5t291.5 112.5q52 0 105.5 -14t114 -53.5t106.5 -101t76.5 -167.5t30.5 -242q0 -133 -32.5 -261.5t-92.5 -233t-154.5 -168.5t-208.5 -64q-135 0 -233 71q-69 50 -70 100q-1 29 27 46q19 14 38.5 9.5t32.5 -19.5t33 -36t40 -40.5t54.5 -33 t75.5 -13.5q67 0 116 42.5t76.5 117.5t41 160t16.5 188q-66 -55 -176 -55q-111 0 -210 51t-159.5 140.5t-60.5 193.5zM375 537q0 -144 46 -214.5t128 -70.5q56 0 105 17t71 50q0 124 -13 218.5t-32 147t-46.5 85.5t-51 43t-50.5 10q-157 0 -157 -286z" />
<glyph unicode=":" horiz-adv-x="641" d="M231 100q0 49 34 84t81 35q50 0 84.5 -34.5t34.5 -84.5q0 -47 -35 -81.5t-84 -34.5q-47 0 -81 34.5t-34 81.5zM231 487q0 49 34 84t81 35q50 0 84.5 -35t34.5 -84q0 -47 -35 -81.5t-84 -34.5q-47 0 -81 34.5t-34 81.5z" />
<glyph unicode=";" horiz-adv-x="641" d="M231 98q0 47 33.5 83t79.5 36q54 0 94.5 -38.5t40.5 -106.5q0 -86 -54 -178.5t-153 -155.5l-36 37q104 110 118 205h-10q-46 0 -79.5 35.5t-33.5 82.5zM231 487q0 49 34 84t81 35q50 0 84.5 -35t34.5 -84q0 -47 -35 -81.5t-84 -34.5q-47 0 -81 34.5t-34 81.5z" />
<glyph unicode="&#x3c;" horiz-adv-x="1024" d="M154 549l692 444l31 -45l-359 -399l359 -399l-31 -48z" />
<glyph unicode="=" horiz-adv-x="937" d="M170 221v160h598v-160h-598zM170 512v160h598v-160h-598z" />
<glyph unicode="&#x3e;" horiz-adv-x="1024" d="M147 150l359 399l-359 399l33 45l690 -444l-690 -447z" />
<glyph unicode="?" horiz-adv-x="1050" d="M164 1026q0 73 54.5 129t129.5 82.5t150 26.5q107 0 196.5 -34t145 -88t86 -117.5t30.5 -125.5q0 -124 -62 -217.5t-163 -145t-233 -67.5v-111h-92v357q175 0 286 65t111 178q0 88 -86.5 156t-218.5 68q-84 0 -135.5 -31t-51.5 -61q0 -21 17 -34.5t53 -13.5 q37 0 63.5 -25.5t26.5 -60.5q0 -52 -43.5 -79t-87.5 -27q-29 0 -57.5 9t-56 28.5t-45 55.5t-17.5 83zM338 100q0 50 33 84.5t82 34.5t82.5 -34.5t33.5 -84.5q0 -48 -33.5 -82t-82.5 -34t-82 34t-33 82z" />
<glyph unicode="@" horiz-adv-x="1449" d="M78 563q0 145 58 278.5t155.5 230.5t231.5 154.5t280 57.5q163 0 294 -67t207 -192.5t76 -287.5q0 -104 -36.5 -201t-94 -164.5t-127 -108t-135.5 -40.5q-93 0 -141 82q-38 -38 -91.5 -63t-95.5 -25q-134 0 -197.5 113.5t-33.5 279.5q29 159 144 272t247 113 q73 0 133 -32h138l-99 -547q-9 -46 0 -68t39 -22q36 0 78 28t80 78t63 129.5t25 171.5q0 99 -37 181.5t-99.5 136t-142 83t-166.5 29.5q-157 0 -290 -84.5t-207 -220.5t-74 -289q0 -237 140 -387.5t360 -150.5q119 0 219 34.5t211 104.5l39 -57q-116 -87 -243.5 -133 t-242.5 -46q-183 0 -335.5 82t-241 226.5t-88.5 320.5zM594 468q0 -62 25 -103t73 -41t93.5 47.5t58.5 115.5l65 383q-39 35 -94 35q-52 0 -96.5 -45.5t-72.5 -112t-42 -145.5q-10 -72 -10 -134z" />
<glyph unicode="A" horiz-adv-x="1280" d="M-78 0v59q105 0 155 36t97 145l444 1024h44l446 -1024q25 -57 40.5 -85t43.5 -53.5t66.5 -34t99.5 -8.5v-59h-672v59q130 0 162 37q14 16 14 42q0 32 -22 77l-86 195h-406l-84 -195q-20 -44 -20 -75q0 -26 16 -44q34 -36 158 -37v-59h-496zM389 502h326l-164 375z" />
<glyph unicode="B" horiz-adv-x="1345" d="M78 0v59q45 0 73.5 3t52 14t35.5 26t20 44t10.5 63.5t2.5 89.5v631q0 55 -2.5 89.5t-10.5 63.5t-20 44t-35.5 25.5t-52 13.5t-73.5 3v60h696q165 0 267 -88t102 -219q0 -79 -40 -146t-112 -108q119 -36 186.5 -124t67.5 -200q0 -146 -114 -245t-300 -99h-753zM528 319 q0 -62 4.5 -99t15.5 -64.5t35 -40t56 -18t86 -5.5h-14q126 0 193 72t67 184q0 111 -67 183.5t-193 72.5h-183v-285zM528 696h115q110 0 167.5 61.5t57.5 157.5t-57.5 159t-167.5 63h-115v-441z" />
<glyph unicode="C" horiz-adv-x="1417" d="M145 614q0 131 50 251.5t134.5 207.5t201 139t243.5 52q218 0 381 -174q31 23 53 116h58v-450h-60q-40 196 -154 302.5t-270 106.5q-81 0 -145 -33.5t-103.5 -87t-65.5 -127t-36 -148t-10 -155.5t10 -155.5t36 -148t65.5 -127t103.5 -87t145 -33.5q155 0 269 108t155 302 h60v-450h-58q-24 96 -53 116q-79 -83 -177 -128.5t-204 -45.5q-170 0 -315 87.5t-229.5 237t-84.5 324.5z" />
<glyph unicode="D" horiz-adv-x="1460" d="M78 0v59q45 0 73.5 3t52 14t35.5 26t20 44t10.5 63.5t2.5 89.5v631q0 55 -2.5 89.5t-10.5 63.5t-20 44t-35.5 25.5t-52 13.5t-73.5 3v60h676q173 0 306 -48t214 -133t121.5 -194.5t40.5 -239.5t-40.5 -239t-121.5 -194t-214 -133t-306 -48h-676zM528 324q0 -63 4.5 -101 t15.5 -66t35 -41t56 -18.5t86 -5.5h20q96 0 169 33t115.5 84t69.5 122.5t36.5 139t9.5 143.5t-9.5 143.5t-36.5 139.5t-69.5 123t-115.5 84t-169 33h-217v-813z" />
<glyph unicode="E" horiz-adv-x="1312" d="M78 0v59q45 0 73.5 3t52 14t35.5 26t20 44t10.5 63.5t2.5 89.5v631q0 55 -2.5 89.5t-10.5 63.5t-20 44t-35.5 25.5t-52 13.5t-73.5 3v60h1055l16 -289h-59l-11 41q-10 39 -18 59t-23.5 42t-39 32t-62 16.5t-94.5 6.5h-314v-441h113q65 0 104 4.5t68 15.5t42 35t18.5 56 t5.5 86h59v-485h-59q0 45 -3 74.5t-13.5 53t-25.5 35.5t-43.5 20t-63 10.5t-89.5 2.5h-113v-272q0 -54 2.5 -89t11 -64t21 -44.5t36 -26t52.5 -13.5t74 -3h184q70 0 112.5 8t67.5 30t35.5 46.5t22.5 71.5l10 41h60l-17 -289h-1122z" />
<glyph unicode="F" horiz-adv-x="1216" d="M78 0v59q45 0 73.5 3t52 14t35.5 26t20 44t10.5 63.5t2.5 89.5v631q0 55 -2.5 89.5t-10.5 63.5t-20 44t-35.5 25.5t-52 13.5t-73.5 3v60h1087l19 -289h-62l-10 41q-12 47 -22.5 71.5t-35 46.5t-66.5 30t-111 8h-349v-441h113q65 0 104 4.5t68 15.5t42 35t18.5 56t5.5 86 h59v-485h-59q0 45 -3 74.5t-13.5 53t-25.5 35.5t-43.5 20t-63 10.5t-89.5 2.5h-113v-305q0 -54 2.5 -89t11 -64t21 -44.5t36 -26t52.5 -13.5t74 -3v-59h-647z" />
<glyph unicode="G" horiz-adv-x="1484" d="M145 614q0 131 50 251.5t134.5 207.5t201 139t243.5 52q218 0 381 -174q31 23 53 116h58v-450h-60q-40 196 -154 302.5t-270 106.5q-81 0 -145 -33.5t-103.5 -87t-65.5 -127t-36 -148t-10 -155.5t10 -155.5t36 -148t65.5 -127t103.5 -87t145 -33.5q63 0 116 13.5 t97.5 42.5t69.5 79.5t25 118.5t-45 100t-148 32v59h604v-59q-45 0 -73.5 -3t-52 -13.5t-35.5 -25.5t-20 -43.5t-10.5 -63t-2.5 -89.5v-139q-81 0 -156.5 -16.5t-124 -37t-116.5 -37t-136 -16.5q-170 0 -315 87.5t-229.5 237t-84.5 324.5z" />
<glyph unicode="H" horiz-adv-x="1685" d="M78 0v59q45 0 73.5 3t52 14t35.5 26t20 44t10.5 63.5t2.5 89.5v631q0 55 -2.5 89.5t-10.5 63.5t-20 44t-35.5 25.5t-52 13.5t-73.5 3v60h647v-60q-54 0 -86 -5.5t-56 -19t-35 -42.5t-15.5 -68t-4.5 -104v-232h629v232q0 55 -2.5 89.5t-10.5 63.5t-20.5 44t-35.5 25.5 t-52.5 13.5t-74.5 3v60h649v-60q-54 0 -86 -5.5t-56 -19t-35 -42.5t-15.5 -68t-4.5 -104v-631q0 -54 2.5 -89t11 -64t21 -44.5t36 -26t52.5 -13.5t74 -3v-59h-649v59q54 0 86.5 6t56 19t34 42.5t15 68t4.5 104.5v307h-629v-307q0 -54 2.5 -89t11 -64t21 -44.5t36 -26 t52.5 -13.5t74 -3v-59h-647z" />
<glyph unicode="I" horiz-adv-x="802" d="M78 0v59q45 0 73.5 3t52 14t35.5 26t20 44t10.5 63.5t2.5 89.5v631q0 55 -2.5 89.5t-10.5 63.5t-20 44t-35.5 25.5t-52 13.5t-73.5 3v60h647v-60q-54 0 -86 -5.5t-56 -19t-35 -42.5t-15.5 -68t-4.5 -104v-631q0 -54 2.5 -89t11 -64t21 -44.5t36 -26t52.5 -13.5t74 -3v-59 h-647z" />
<glyph unicode="J" horiz-adv-x="784" d="M-221 -205q0 36 24 61t60 25t60 -25t24 -61q0 -62 39.5 -111t117.5 -49q168 0 168 256v1039q0 55 -2.5 89.5t-10.5 63.5t-20 44t-35.5 25.5t-52 13.5t-73.5 3v60h647v-60q-54 0 -86 -5.5t-56 -19t-35 -42.5t-15.5 -68t-4.5 -104v-938q0 -219 -117 -334t-300 -115 q-136 0 -234 71t-98 181z" />
<glyph unicode="K" horiz-adv-x="1613" d="M78 0v59q45 0 73.5 3t52 14t35.5 26t20 44t10.5 63.5t2.5 89.5v631q0 55 -2.5 89.5t-10.5 63.5t-20 44t-35.5 25.5t-52 13.5t-73.5 3v60h647v-60q-54 0 -86 -5.5t-56 -19t-35 -42.5t-15.5 -68t-4.5 -104v-275l430 346q16 13 30.5 27.5t32 35t25 38t6 33.5t-22.5 25t-62 9 v60h493v-60q-36 0 -69 -4.5t-56.5 -9t-54.5 -20t-45.5 -22.5t-50 -33t-47 -35t-54.5 -44l-290 -233l567 -588q49 -50 133 -85.5t131 -35.5v-59h-680v59q55 0 85 12.5t30 40t-39 68.5l-404 438l-88 -71v-248q0 -54 2.5 -89t11 -64t21 -44.5t36 -26t52.5 -13.5t74 -3v-59h-647 z" />
<glyph unicode="L" horiz-adv-x="1296" d="M78 0v59q45 0 73.5 3t52 14t35.5 26t20 44t10.5 63.5t2.5 89.5v631q0 55 -2.5 89.5t-10.5 63.5t-20 44t-35.5 25.5t-52 13.5t-73.5 3v60h647v-60q-54 0 -86 -5.5t-56 -19t-35 -42.5t-15.5 -68t-4.5 -104v-598q0 -54 2.5 -89t11 -64t21 -44.5t36 -26t52.5 -13.5t74 -3h236 q70 0 112.5 8t67 30t35 46.5t22.5 71.5l10 41h60l-17 -289h-1173z" />
<glyph unicode="M" horiz-adv-x="1740" d="M78 0v59q45 0 73.5 3t52 14t35.5 26t20 44t10.5 63.5t2.5 89.5v631q0 55 -2.5 89.5t-10.5 63.5t-20 44t-35.5 25.5t-52 13.5t-73.5 3v60h409l396 -887l383 887h399v-60q-68 0 -104 -7.5t-58.5 -36t-28.5 -71t-6 -124.5v-631q0 -66 4.5 -104.5t15 -68t34.5 -42.5t56.5 -19 t86.5 -6v-59h-639v59q45 0 74 3t52.5 13.5t36 26t21 44.5t11 64t2.5 89v592l-402 -926h-45l-411 924v-590q0 -82 6 -125t28.5 -71t58.5 -36t103 -8v-59h-483z" />
<glyph unicode="N" horiz-adv-x="1533" d="M78 0v59q45 0 73.5 3t52 14t35.5 26t20 44t10.5 63.5t2.5 89.5v631q0 55 -2.5 89.5t-10.5 63.5t-20 44t-35.5 25.5t-52 13.5t-73.5 3v60h409l684 -815v516q0 82 -6 125t-28.5 71t-58.5 35.5t-103 7.5v60h485v-60q-45 0 -74.5 -3t-52.5 -13.5t-35.5 -25.5t-20.5 -44 t-10.5 -63.5t-2.5 -89.5v-965h-52l-847 1012v-678q0 -82 6 -125t28.5 -71t58.5 -36t103 -8v-59h-483z" />
<glyph unicode="O" horiz-adv-x="1654" d="M145 614q0 131 54.5 251.5t145.5 207.5t217.5 139t264.5 52q139 0 265.5 -52t218 -139t146 -207.5t54.5 -251.5t-54.5 -251t-146 -207.5t-218 -139t-265.5 -51.5q-184 0 -341.5 87.5t-249 237t-91.5 324.5zM420 614q0 -77 14 -152.5t46 -148t78.5 -128t115.5 -89 t153 -33.5q104 0 185.5 50.5t128.5 133t70.5 176t23.5 191.5t-23.5 191.5t-70.5 176t-128.5 133t-185.5 50.5q-84 0 -153 -33.5t-115.5 -89t-78.5 -128t-46 -148t-14 -152.5z" />
<glyph unicode="P" horiz-adv-x="1224" d="M78 0v59q45 0 73.5 3t52 14t35.5 26t20 44t10.5 63.5t2.5 89.5v631q0 55 -2.5 89.5t-10.5 63.5t-20 44t-35.5 25.5t-52 13.5t-73.5 3v60h686q186 0 300 -99.5t114 -246.5q0 -146 -114 -245t-300 -99h-236v-240q0 -54 2.5 -89t11 -64t21 -44.5t36 -26t52.5 -13.5t74 -3 v-59h-647zM528 631h113q128 0 195 71t67 181q0 111 -67 182.5t-195 71.5h-113v-506z" />
<glyph unicode="Q" horiz-adv-x="1654" d="M145 614q0 131 54.5 251.5t145.5 207.5t217.5 139t264.5 52q139 0 265.5 -52t218 -139t146 -207.5t54.5 -251.5q0 -126 -48.5 -240t-131.5 -198t-195.5 -138.5t-238.5 -68.5q-62 -6 -143.5 -40t-135.5 -79q75 19 146 19q14 0 28 -1q84 -4 147.5 -24.5t129.5 -50 t118 -57.5t114 -48t118 -20q231 0 338 174l49 -20q-13 -37 -24.5 -66.5t-32.5 -71.5t-43.5 -74t-56 -66t-71.5 -56t-89 -36.5t-109 -14.5q-69 0 -132.5 20t-113 52.5t-95.5 71.5t-86.5 78t-78.5 71.5t-79.5 52.5t-81.5 20q-55 0 -93.5 -13t-58 -32.5t-33 -39t-28 -34.5 t-33.5 -18q-29 -5 -49.5 14.5t-20.5 51.5q0 50 95 126t225 115q-250 43 -411 223.5t-161 417.5zM420 614q0 -77 14 -152.5t46 -148t78.5 -128t115.5 -89t153 -33.5q104 0 185.5 50.5t128.5 133t70.5 176t23.5 191.5t-23.5 191.5t-70.5 176t-128.5 133t-185.5 50.5 q-84 0 -153 -33.5t-115.5 -89t-78.5 -128t-46 -148t-14 -152.5z" />
<glyph unicode="R" horiz-adv-x="1388" d="M78 0v59q45 0 73.5 3t52 14t35.5 26t20 44t10.5 63.5t2.5 89.5v631q0 55 -2.5 89.5t-10.5 63.5t-20 44t-35.5 25.5t-52 13.5t-73.5 3v60h686q186 0 300 -99.5t114 -246.5q0 -136 -99 -232.5t-264 -111.5l199 -217q132 -146 209.5 -198.5t173.5 -64.5v-59h-445l-364 539 h-60v-240q0 -54 2.5 -89t11 -64t21 -44.5t36 -26t52.5 -13.5t74 -3v-59h-647zM528 631h113q128 0 195 71t67 181q0 111 -67 182.5t-195 71.5h-113v-506z" />
<glyph unicode="S" horiz-adv-x="1019" d="M100 -35v451h60q30 -160 139.5 -259.5t239.5 -99.5q92 0 148 52.5t56 150.5q0 57 -40.5 114t-110.5 93l-197 102q-69 35 -116.5 69.5t-85.5 80t-56 104.5t-18 133q0 127 104 217.5t252 90.5q83 0 139 -22t111 -62q46 37 59 94h58v-451h-60q-6 68 -22.5 125t-49 110.5 t-89.5 84.5t-134 31q-66 0 -115.5 -45.5t-49.5 -118.5q0 -51 42.5 -110.5t120.5 -98.5l197 -101q118 -62 191 -154.5t73 -207.5q0 -108 -58 -194.5t-150.5 -132.5t-198.5 -46q-69 0 -132.5 20.5t-115 45.5t-72.5 30q-46 -37 -59 -96h-60z" />
<glyph unicode="T" horiz-adv-x="1314" d="M16 940l19 289h1245l16 -289h-59l-10 41q-12 47 -22.5 71.5t-35.5 46.5t-67.5 30t-112.5 8h-205v-838q0 -54 2.5 -89t11 -64t21 -44.5t36 -26t52.5 -13.5t74 -3v-59h-647v59q45 0 73.5 3t52 14t35.5 26t20 44t10.5 63.5t2.5 89.5v838h-204q-69 0 -111 -8t-67 -30 t-35.5 -46.5t-22.5 -71.5l-10 -41h-62z" />
<glyph unicode="U" horiz-adv-x="1501" d="M63 1169v60h650v-60q-68 0 -104 -7.5t-58.5 -36t-28.5 -71t-6 -124.5v-451q0 -189 89 -288t229 -99q138 0 219.5 98t81.5 289v451q0 55 -2.5 89.5t-10.5 63.5t-20.5 44t-36 25.5t-53 13.5t-74.5 3v60h502v-60q-54 0 -86 -6t-55.5 -19t-34 -42t-15 -67.5t-4.5 -104.5v-473 q0 -118 -39 -212.5t-106.5 -155t-156.5 -92.5t-191 -32q-103 0 -192 32t-156 92.5t-105.5 155t-38.5 212.5v473q0 65 -4.5 104t-15.5 68t-35 42.5t-56 19t-86 5.5z" />
<glyph unicode="V" horiz-adv-x="1280" d="M-78 1169v60h672v-60q-130 -1 -162 -37q-14 -16 -14 -41q0 -32 22 -77l287 -666l289 666q20 44 20 75q0 27 -16 44q-34 36 -158 36v60h496v-60q-106 0 -155.5 -35.5t-96.5 -144.5l-444 -1024h-44l-446 1024q-20 46 -32.5 70.5t-32 49.5t-43.5 36t-58.5 17.5t-83.5 6.5z " />
<glyph unicode="W" horiz-adv-x="1560" d="M-88 1169v60h647v-60q-126 0 -158 -32q-17 -17 -17 -49q0 -30 15 -74l187 -576l250 791h47l258 -793l186 578q13 40 13 69q0 33 -16 51q-31 36 -140 35v60h479v-60q-86 0 -131.5 -17.5t-67 -52t-45.5 -110.5l-332 -1024h-45l-258 793l-252 -793h-45l-329 1024 q-19 58 -33.5 88.5t-41.5 53.5t-66 30.5t-105 7.5z" />
<glyph unicode="X" horiz-adv-x="1257" d="M-59 0v59q62 0 113.5 22.5t91.5 59t90 99.5l278 342l-254 407q-65 100 -126.5 140t-160.5 40v60h684v-60q-111 0 -137 -35q-8 -12 -8 -28q0 -35 35 -92l137 -219l180 219q46 54 46 90q0 14 -6 24q-24 40 -150 41v60h503v-60q-53 0 -91 -9t-73 -35t-60.5 -53.5 t-69.5 -82.5l-228 -276l297 -473q67 -103 127.5 -142t161.5 -39v-59h-686v59q117 -1 141 35q7 11 7 27q0 35 -38 94l-178 285l-233 -285q-46 -53 -46 -89q0 -14 6 -26q24 -42 150 -41v-59h-503z" />
<glyph unicode="Y" horiz-adv-x="1296" d="M-68 1169v60h695v-60q-109 0 -136 -37q-9 -12 -9 -29q0 -34 36 -89l230 -346l229 346q40 58 40 94q0 14 -7 25q-24 36 -144 36v60h496v-60q-64 0 -105 -8t-75 -33.5t-56 -53t-59 -85.5l-293 -442v-248q0 -66 4.5 -104.5t15 -68t34 -42.5t55.5 -19t86 -6v-59h-639v59 q67 0 103 8t58.5 36t28.5 71t6 125v242l-297 448q-72 109 -130.5 144.5t-166.5 35.5z" />
<glyph unicode="Z" horiz-adv-x="1212" d="M88 0v49l635 1104h-322q-56 0 -94.5 -6.5t-62 -16.5t-39.5 -31.5t-24 -42t-17 -57.5l-10 -41h-43l18 271h907v-45l-641 -1108h396q56 0 94 6.5t62 16t39.5 31.5t23.5 42.5t18 58.5l10 41h43l-18 -272h-975z" />
<glyph unicode="[" horiz-adv-x="768" d="M240 -180v1569h448v-82h-213v-1405h213v-82h-448z" />
<glyph unicode="\" horiz-adv-x="712" d="M-70 1217l97 53l757 -1256l-98 -51z" />
<glyph unicode="]" horiz-adv-x="768" d="M80 -98h213v1405h-213v82h448v-1569h-448v82z" />
<glyph unicode="^" horiz-adv-x="993" d="M51 606l447 658l444 -658l-47 -33l-397 324l-400 -324z" />
<glyph unicode="_" horiz-adv-x="733" d="M-2 0h737v-90h-737v90z" />
<glyph unicode="`" horiz-adv-x="827" d="M111 1221q0 28 20 51.5t55 23.5q32 0 57 -14t60 -47l250 -231l-14 -19l-367 156q-61 32 -61 80z" />
<glyph unicode="a" horiz-adv-x="919" d="M80 145q0 64 32.5 113t95.5 83t142 56.5t185 38.5v2q0 109 -33 152t-101 43q-40 0 -75 -21.5t-35 -58.5q0 -40 -23.5 -64t-58.5 -24t-57.5 24t-22.5 64q0 73 89 118t208 46q170 0 247 -66.5t77 -212.5v-276q0 -78 45 -78q19 0 59 25l29 -56q-43 -33 -98.5 -54.5 t-92.5 -21.5q-134 0 -157 119q-92 -72 -142.5 -97.5t-116.5 -25.5q-78 0 -137 47t-59 125zM283 170q0 -42 23.5 -62t58.5 -20q27 0 73.5 24.5t96.5 67.5v174q-131 -34 -191.5 -73.5t-60.5 -110.5z" />
<glyph unicode="b" horiz-adv-x="1044" d="M8 1153v59l393 52v-607q74 60 168 60q169 0 271 -107.5t102 -267.5t-102 -268.5t-271 -108.5q-74 0 -133.5 36t-97.5 97l-107 -114h-61v929q0 81 -5.5 125t-24.5 71.5t-48.5 35.5t-83.5 8zM401 242q0 -76 41.5 -128.5t96.5 -52.5q75 0 114 78.5t39 202.5q0 123 -39 201 t-114 78q-56 0 -97 -51.5t-41 -129.5v-198z" />
<glyph unicode="c" horiz-adv-x="845" d="M102 324q0 176 110.5 284.5t268.5 108.5q120 0 191 -51t71 -115q0 -32 -22 -59t-70 -27q-32 0 -56 24t-24 58q0 46 -21 67t-52 21q-78 0 -111 -80t-33 -231q0 -123 54.5 -190.5t152.5 -67.5q97 0 207 94l37 -60q-129 -135 -307 -135q-169 0 -282.5 102.5t-113.5 256.5z " />
<glyph unicode="d" horiz-adv-x="1060" d="M102 342q0 160 102 267.5t271 107.5q94 0 168 -60v256q0 81 -5.5 125t-24.5 71.5t-48.5 35.5t-83.5 8v59l393 52v-949q0 -81 5.5 -124.5t24.5 -70.5t48 -34.5t84 -7.5v-62l-358 -51q-7 12 -19 74q-77 -74 -184 -74q-169 0 -271 108.5t-102 268.5zM354 342 q0 -124 39 -202.5t115 -78.5q54 0 94.5 52.5t40.5 128.5v198q0 77 -40.5 129t-94.5 52q-76 0 -115 -77.5t-39 -201.5z" />
<glyph unicode="e" horiz-adv-x="886" d="M102 342q0 160 116 267.5t280 107.5q54 0 103 -15t83.5 -41t62.5 -60t40.5 -71.5t16.5 -76.5q1 -9 1 -18q0 -29 -10 -56h-447q-1 -21 -1 -40q-1 -118 51 -186q60 -79 151 -79q145 0 244 86l34 -60q-56 -59 -141.5 -97t-169.5 -38q-181 0 -297.5 109.5t-116.5 267.5z M362 469h273q1 8 1 16q0 54 -30 91q-34 42 -98 42q-111 0 -146 -149z" />
<glyph unicode="f" horiz-adv-x="690" d="M57 592v90h168v166q0 212 83 314t263 102q115 0 186.5 -58t71.5 -123q0 -35 -20.5 -59.5t-56.5 -24.5q-41 0 -65 28.5t-32 62t-29.5 62t-58.5 28.5q-63 0 -86.5 -54t-23.5 -190v-254h205v-90h-205v-293q0 -81 5.5 -124.5t24 -71.5t48 -36t83.5 -8v-59h-555v59 q54 0 83.5 8t48.5 35.5t24.5 71.5t5.5 125v293h-168z" />
<glyph unicode="g" horiz-adv-x="839" d="M35 -315q17 84 133 141l39 -23q-50 -53 -61 -99q-4 -15 -4 -29q0 -26 14 -45q20 -29 58.5 -50t83 -30t87.5 -9q108 0 176 38.5t68 101.5q0 38 -22 61.5t-90 43.5t-193 34q-131 14 -193.5 63.5t-62.5 141.5q0 55 49 104t129 74q-67 30 -110.5 94.5t-43.5 140.5 q0 115 90 197t215 82q122 0 213 -78q25 32 71.5 55t80.5 23q98 0 135 -69q15 -28 15 -55q0 -23 -11 -45q-19 -40 -58 -40q-7 0 -15 1q-3 0 -7 1q-26 6 -39.5 25t-16.5 37.5t-14 33.5t-34 15q-31 0 -64 -33q28 -34 38.5 -68t10.5 -82q0 -106 -79 -187t-203 -91 q-118 -9 -148 -21q-41 -14 -41 -47q0 -25 36.5 -34.5t138.5 -18.5q28 -3 43 -4q93 -10 163 -40t108.5 -72t57.5 -86.5t19 -90.5q0 -132 -112.5 -212.5t-278.5 -80.5q-203 0 -308 86q-66 54 -66 118q0 14 3 28zM283 438q0 -86 29 -140t85 -54q57 0 86 53.5t29 140.5 q0 88 -29 141.5t-86 53.5q-56 0 -85 -53.5t-29 -141.5z" />
<glyph unicode="h" horiz-adv-x="1126" d="M27 0v59q71 0 103 18t45 67t13 155v614q0 106 -13 155t-45 67t-103 18v59l391 52v-658q92 111 244 111q135 0 214.5 -85.5t79.5 -219.5v-113q0 -81 5.5 -125t24.5 -71.5t48.5 -35.5t83.5 -8v-59h-473v59q28 0 44 16.5t26 70.5t10 153v86q0 109 -26.5 163t-98.5 54 q-69 0 -125.5 -54t-56.5 -149v-100q0 -106 13 -155t45.5 -67t103.5 -18v-59h-553z" />
<glyph unicode="i" horiz-adv-x="677" d="M80 0v59q54 0 83.5 8t48.5 35.5t24.5 71.5t5.5 125v68q0 81 -5.5 124.5t-24.5 71t-48.5 35.5t-83.5 8v60l393 51v-418q0 -81 5.5 -125t24.5 -71.5t48.5 -35.5t83.5 -8v-59h-555zM229 1061q0 54 36.5 92.5t90.5 38.5t92.5 -38.5t38.5 -92.5t-38.5 -93.5t-92.5 -39.5 q-53 0 -90 39t-37 94z" />
<glyph unicode="j" horiz-adv-x="583" d="M-211 -354q0 32 18 51.5t52 19.5q31 0 49 -18.5t27 -45t19.5 -53t35 -45t65.5 -18.5q43 0 71 25t46 98t18 197v510q0 81 -5.5 124.5t-24 71t-48 35.5t-83.5 8v60l393 51v-877q0 -201 -83.5 -294t-250.5 -93q-134 0 -215.5 63t-83.5 130zM178 1061q0 54 36.5 92.5 t90.5 38.5t92.5 -38.5t38.5 -92.5t-38.5 -93.5t-92.5 -39.5q-53 0 -90 39t-37 94z" />
<glyph unicode="k" horiz-adv-x="952" d="M27 0v59q71 0 103 18t45 67t13 155v614q0 106 -13 155t-45 67t-103 18v59l391 52v-858l155 110q37 29 37 54q0 10 -6 20q-20 34 -94 33v59h428v-59q-54 0 -99 -16t-98 -58l-155 -119l239 -289q69 -82 156 -82v-59h-289l-274 326v-43q0 -134 26 -179t103 -45v-59h-520z " />
<glyph unicode="l" horiz-adv-x="677" d="M80 0v59q54 0 83.5 8t48.5 35.5t24.5 71.5t5.5 125v614q0 81 -5.5 125t-24.5 71.5t-48.5 35.5t-83.5 8v59l393 52v-965q0 -81 5.5 -125t24.5 -71.5t48.5 -35.5t83.5 -8v-59h-555z" />
<glyph unicode="m" horiz-adv-x="1712" d="M80 0v59q54 0 83.5 8t48.5 35.5t24.5 71.5t5.5 125v68q0 81 -5.5 124.5t-24.5 71t-48.5 35.5t-83.5 8v60l358 51q22 -45 29 -117q95 117 256 117q90 0 154.5 -40.5t97.5 -111.5q112 152 282 152q134 0 209.5 -85t75.5 -220v-113q0 -81 5.5 -125t24.5 -71.5t48.5 -35.5 t83.5 -8v-59h-473v59q28 0 44 16.5t26 70.5t10 153v86q0 108 -25 162.5t-90 54.5q-70 0 -129 -54t-59 -149v-100q0 -81 5.5 -124.5t24 -71.5t48 -36t83.5 -8v-59h-473v59q28 0 44 16.5t26 70.5t10 153v86q0 109 -24.5 163t-89.5 54q-70 0 -129.5 -54t-59.5 -149v-100 q0 -105 12 -154.5t39.5 -67.5t85.5 -18v-59h-530z" />
<glyph unicode="n" horiz-adv-x="1212" d="M80 0v59q54 0 83.5 8t48.5 35.5t24.5 71.5t5.5 125v68q0 81 -5.5 124.5t-24.5 71t-48.5 35.5t-83.5 8v60l358 51q22 -45 29 -117q95 117 256 117q137 0 227 -87t90 -218v-113q0 -80 6 -124.5t25 -72t49 -35.5t84 -8v-59h-473v59q28 0 44 16.5t26 70.5t10 153v86 q0 107 -33.5 162t-115.5 55q-70 0 -129.5 -54t-59.5 -149v-100q0 -81 5.5 -125t24.5 -71.5t48.5 -35.5t83.5 -8v-59h-555z" />
<glyph unicode="o" horiz-adv-x="1030" d="M102 342q0 155 121.5 265t292.5 110q170 0 291 -110t121 -265t-121 -266t-291 -111t-292 111t-122 266zM354 342q0 -123 41.5 -202t120.5 -79t120.5 79t41.5 202t-41 201t-121 78t-121 -78t-41 -201z" />
<glyph unicode="p" horiz-adv-x="1044" d="M8 -453q54 0 83.5 8t48.5 35.5t24.5 71.5t5.5 125v580q0 81 -5.5 124.5t-24.5 71t-48.5 35.5t-83.5 8v60l359 51q5 -9 18 -74q77 74 184 74q169 0 271 -107.5t102 -267.5t-102 -268.5t-271 -108.5q-96 0 -168 62v-240q0 -81 5.5 -125t24.5 -71.5t48.5 -35.5t83.5 -8v-59 h-555v59zM401 242q0 -76 41.5 -128.5t96.5 -52.5q75 0 114 78.5t39 202.5q0 123 -39 201t-114 78q-56 0 -97 -51.5t-41 -129.5v-198z" />
<glyph unicode="q" horiz-adv-x="1044" d="M102 342q0 160 102 267.5t271 107.5q75 0 134 -35.5t98 -95.5l108 114h59v-913q0 -81 5.5 -125t24.5 -71.5t48.5 -35.5t83.5 -8v-59h-555v59q54 0 83.5 8t48.5 35.5t24.5 71.5t5.5 125v240q-72 -62 -168 -62q-169 0 -271 108.5t-102 268.5zM354 342q0 -124 39 -202.5 t115 -78.5q54 0 94.5 52.5t40.5 128.5v198q0 77 -40.5 129t-94.5 52q-76 0 -115 -77.5t-39 -201.5z" />
<glyph unicode="r" horiz-adv-x="884" d="M80 0v59q54 0 83.5 8t48.5 35.5t24.5 71.5t5.5 125v68q0 81 -5.5 124.5t-24.5 71t-48.5 35.5t-83.5 8v60l358 51q7 -14 18.5 -64t16.5 -84q33 62 94.5 105t122.5 43q95 0 138.5 -51t43.5 -117q0 -45 -28.5 -84t-79.5 -39q-29 0 -46.5 14t-25 33.5t-16 39.5t-27 34 t-49.5 14q-52 0 -89.5 -52.5t-37.5 -166.5v-43q0 -81 5.5 -125t24.5 -71.5t48.5 -35.5t83.5 -8v-59h-555z" />
<glyph unicode="s" horiz-adv-x="716" d="M86 -35v299h59q0 -73 76.5 -143t173.5 -70q49 0 78 22t29 58q0 35 -30.5 61.5t-100.5 59.5l-115 51q-76 35 -115 91.5t-39 117.5q0 55 22.5 96.5t60 64t77.5 33.5t82 11q41 0 81.5 -8t63.5 -16t42 -12t26.5 4t7.5 32h60v-238h-60q0 62 -60 109t-128 47q-43 0 -72 -19.5 t-29 -50.5q0 -33 29 -53.5t113 -58.5l100 -47q75 -35 116.5 -91.5t41.5 -117.5q0 -78 -43 -132t-104 -77t-132 -23q-34 0 -67.5 7.5t-57 18t-45.5 20.5t-36.5 15t-25 2.5t-15.5 -18t-5 -45.5h-59z" />
<glyph unicode="t" horiz-adv-x="620" d="M49 592v67q96 21 177 102.5t91 178.5h70v-258h178v-90h-178v-361q0 -149 92 -149q57 0 139 59l29 -57q-53 -48 -126.5 -83.5t-125.5 -35.5q-111 0 -174 66.5t-63 185.5v375h-109z" />
<glyph unicode="u" horiz-adv-x="1140" d="M8 623v59h393v-383q0 -107 33.5 -163t114.5 -56q70 0 130 54.5t60 148.5v102q0 106 -13 154.5t-45 66t-103 17.5v59h391v-367q0 -64 4.5 -103.5t13.5 -68t29.5 -41.5t46.5 -18.5t70 -5.5v-62l-359 -51q-21 41 -31 119q-42 -54 -108 -86.5t-148 -32.5q-137 0 -227 88 t-90 219v113q0 81 -5.5 124.5t-24.5 71t-48.5 35t-83.5 7.5z" />
<glyph unicode="v" horiz-adv-x="753" d="M-68 623v59h449v-59q-64 1 -79 -25q-5 -9 -5 -23q0 -22 16 -55l123 -264l123 264q16 37 16 60q-1 12 -5 20q-12 24 -70 23v59h305v-59q-55 0 -88 -23.5t-58 -79.5l-258 -557h-57l-276 557q-27 58 -57.5 80.5t-78.5 22.5z" />
<glyph unicode="w" horiz-adv-x="1034" d="M-59 623v59h432v-59q-65 1 -79 -21q-5 -8 -6 -22q0 -22 15 -60l84 -203l141 365h68l149 -365l80 203q14 37 14 60q-1 12 -5 20q-12 22 -70 23v59h305v-59q-57 0 -89 -21t-56 -82l-215 -557h-41l-166 395l-152 -395h-41l-231 557q-26 60 -54.5 81.5t-82.5 21.5z" />
<glyph unicode="x" horiz-adv-x="833" d="M-31 623v59h482v-59q-66 -1 -76 -23q-2 -4 -2 -9q0 -24 35 -71l49 -63l61 63q43 45 43 71q0 32 -69 32v59h333v-59q-101 0 -196 -103l-121 -127l176 -231q50 -61 91 -82t106 -21v-59h-506v59q71 0 81 28q2 6 2 12q0 25 -32 63l-61 80l-76 -80q-43 -47 -43 -71q0 -5 2 -9 q10 -24 76 -23v-59h-326v59q41 0 82.5 22t97.5 81l135 143l-163 215q-47 60 -87 81.5t-94 21.5z" />
<glyph unicode="y" horiz-adv-x="733" d="M-68 623v59h449v-59q-65 0 -80 -23q-5 -8 -5 -21q0 -22 17 -59l119 -266l111 266q15 36 15 58q0 13 -4 22q-14 23 -71 23v59h303v-59q-54 0 -88 -24t-57 -79l-412 -997q-33 -76 -77 -76q-29 0 -55.5 17.5t-26.5 58.5q0 26 16 47t37.5 37t51 55t50.5 92l88 217l-245 549 q-43 103 -136 103z" />
<glyph unicode="z" horiz-adv-x="681" d="M37 0v35l307 565h-12q-92 0 -140 -13.5t-65.5 -36.5t-30.5 -71l-10 -41h-43l14 244h568v-33l-306 -567h39q92 0 140.5 14t65.5 36.5t30 70.5l10 41h43l-16 -244h-594z" />
<glyph unicode="{" horiz-adv-x="768" d="M86 590v33q82 28 111 51q66 51 81 190q5 51 5 115q0 52 10 98t23.5 80t40.5 67.5t47.5 54t60 47t62 39.5t69 38t66.5 37l47 -62q-82 -54 -118 -99t-49.5 -109t-13.5 -187q0 -86 -14.5 -149.5t-35.5 -101t-59.5 -64t-70.5 -38t-84 -24.5q52 -13 84 -24.5t70.5 -38 t59.5 -64t35.5 -101t14.5 -149.5q0 -123 13.5 -187t49.5 -109.5t118 -100.5l-47 -59q-22 12 -67 36.5t-68.5 38t-62 39.5t-59.5 46.5t-48 53.5t-40.5 67t-23.5 80t-10 99q0 85 -10.5 145t-22.5 93.5t-43 58.5t-50 33.5t-66 24.5q-3 1 -5 2z" />
<glyph unicode="|" horiz-adv-x="552" d="M236 0v1450h90v-1450h-90z" />
<glyph unicode="}" horiz-adv-x="768" d="M59 -168q82 55 118 100.5t49.5 109.5t13.5 187q0 86 14.5 149.5t35.5 101t59.5 64t70.5 38t84 24.5q-52 13 -84 24.5t-70.5 38t-59.5 64t-35.5 101t-14.5 149.5q0 123 -13.5 187t-49.5 109t-118 99l47 62q21 -12 66.5 -37t69 -38t62.5 -39.5t60 -47t48.5 -54t41 -67.5 t23.5 -80t10 -98q0 -105 11 -170.5t42.5 -101.5t55.5 -49t81 -33q3 -1 5 -2v-33q-34 -12 -49 -17.5t-41 -19.5t-37.5 -28.5t-27.5 -40.5t-22.5 -59.5t-12 -81.5t-5.5 -110q0 -53 -10 -99t-24 -80t-40.5 -67t-48.5 -54t-60 -46.5t-62.5 -39t-69 -37.5t-66.5 -37z" />
<glyph unicode="~" horiz-adv-x="1036" d="M76 358q0 152 67.5 264.5t159.5 112.5q48 0 109.5 -24t111.5 -53.5t108.5 -53.5t100.5 -24q64 0 99 28.5t55 104.5h71q0 -169 -67 -277t-176 -108q-53 0 -136 40t-162 79.5t-122 39.5q-50 0 -90.5 -33.5t-57.5 -95.5h-71z" />
<glyph />
<glyph horiz-adv-x="1280" d="M-78 0v59q105 0 155 36t97 145l444 1024h44l446 -1024q25 -57 40.5 -85t43.5 -53.5t66.5 -34t99.5 -8.5v-59h-672v59q130 0 162 37t-8 119l-86 195h-406l-84 -195q-38 -83 -4.5 -119.5t158.5 -36.5v-59h-496zM326 1485q0 44 30.5 74t73.5 30t74 -30t31 -74q0 -43 -31 -74 t-74 -31t-73.5 31t-30.5 74zM389 502h326l-164 375zM733 1485q0 44 31 74t74 30t73.5 -30t30.5 -74q0 -43 -30.5 -74t-73.5 -31t-74 31t-31 74z" />
<glyph horiz-adv-x="1280" d="M-78 0v59q105 0 155 36t97 145l444 1024h44l446 -1024q25 -57 40.5 -85t43.5 -53.5t66.5 -34t99.5 -8.5v-59h-672v59q130 0 162 37t-8 119l-86 195h-406l-84 -195q-38 -83 -4.5 -119.5t158.5 -36.5v-59h-496zM389 502h326l-164 375zM428 1585q0 85 60 145t145 60t144 -60 t59 -145t-59 -144t-144 -59t-145 59t-60 144zM539 1585q0 -38 28 -65t66 -27t65 27t27 65t-27 66t-65 28t-66 -28t-28 -66z" />
<glyph horiz-adv-x="1417" d="M145 614q0 131 50 251.5t134.5 207.5t201 139t243.5 52q218 0 381 -174q31 23 53 116h58v-450h-60q-40 196 -154 302.5t-270 106.5q-81 0 -145 -33.5t-103.5 -87t-65.5 -127t-36 -148t-10 -155.5t10 -155.5t36 -148t65.5 -127t103.5 -87t145 -33.5q155 0 269 108t155 302 h60v-450h-58q-24 96 -53 116q-80 -81 -177.5 -127t-201.5 -47l-98 -100q37 -2 74.5 -14.5t71.5 -36.5t55.5 -65t21.5 -93q0 -55 -33 -101.5t-79 -75t-105 -50.5t-98.5 -31t-73.5 -14v73q227 67 227 199q0 44 -41 72.5t-101 32t-128 -16.5v37l195 194q-222 40 -370.5 221 t-148.5 418z" />
<glyph horiz-adv-x="1312" d="M78 0v59q45 0 73.5 3t52 14t35.5 26t20 44t10.5 63.5t2.5 89.5v631q0 55 -2.5 89.5t-10.5 63.5t-20 44t-35.5 25.5t-52 13.5t-73.5 3v60h1055l16 -289h-59l-11 41q-10 39 -18 59t-23.5 42t-39 32t-62 16.5t-94.5 6.5h-314v-441h113q65 0 104 4.5t68 15.5t42 35t18.5 56 t5.5 86h59v-485h-59q0 45 -3 74.5t-13.5 53t-25.5 35.5t-43.5 20t-63 10.5t-89.5 2.5h-113v-272q0 -54 2.5 -89t11 -64t21 -44.5t36 -26t52.5 -13.5t74 -3h184q70 0 112.5 8t67.5 30t35.5 46.5t22.5 71.5l10 41h60l-17 -289h-1122zM545 1399l248 231q37 33 61.5 47.5 t54.5 14.5q35 0 55.5 -24.5t20.5 -51.5q0 -50 -61 -82l-367 -154z" />
<glyph horiz-adv-x="1519" d="M78 0v59q45 0 73.5 3t52 14t35.5 26t20 44t10.5 63.5t2.5 89.5v631q0 55 -2.5 89.5t-10.5 63.5t-20 44t-35.5 25.5t-52 13.5t-73.5 3v60h409l684 -815v516q0 82 -6 125t-28.5 71t-58.5 35.5t-103 7.5v60h485v-60q-45 0 -74.5 -3t-52.5 -13.5t-35.5 -25.5t-20.5 -44 t-10.5 -63.5t-2.5 -89.5v-965h-52l-847 1012v-678q0 -82 6 -125t28.5 -71t58.5 -36t103 -8v-59h-483zM432 1382q0 104 46.5 172t113.5 68q32 0 76 -21t80.5 -46.5t79.5 -46.5t73 -21q80 0 105 117h41q0 -114 -46.5 -179t-123.5 -65q-36 0 -96.5 34t-118 67.5t-87.5 33.5 q-33 0 -62.5 -33t-41.5 -80h-39z" />
<glyph unicode="&#x85;" horiz-adv-x="1654" d="M145 614q0 131 54.5 251.5t145.5 207.5t217.5 139t264.5 52q139 0 265.5 -52t218 -139t146 -207.5t54.5 -251.5t-54.5 -251t-146 -207.5t-218 -139t-265.5 -51.5q-184 0 -341.5 87.5t-249 237t-91.5 324.5zM420 614q0 -77 14 -152.5t46 -148t78.5 -128t115.5 -89 t153 -33.5q104 0 185.5 50.5t128.5 133t70.5 176t23.5 191.5t-23.5 191.5t-70.5 176t-128.5 133t-185.5 50.5q-84 0 -153 -33.5t-115.5 -89t-78.5 -128t-46 -148t-14 -152.5zM528 1485q0 44 31 74t74 30t73.5 -30t30.5 -74q0 -43 -30.5 -74t-73.5 -31t-74 31t-31 74z M936 1485q0 44 30.5 74t73.5 30t74 -30t31 -74q0 -43 -31 -74t-74 -31t-73.5 31t-30.5 74z" />
<glyph horiz-adv-x="1533" d="M63 1169v60h650v-60q-68 0 -104 -7.5t-58.5 -36t-28.5 -71t-6 -124.5v-451q0 -189 89 -288t229 -99q138 0 219.5 98t81.5 289v451q0 55 -2.5 89.5t-10.5 63.5t-20.5 44t-36 25.5t-53 13.5t-74.5 3v60h502v-60q-54 0 -86 -6t-55.5 -19t-34 -42t-15 -67.5t-4.5 -104.5v-473 q0 -118 -39 -212.5t-106.5 -155t-156.5 -92.5t-191 -32q-103 0 -192 32t-156 92.5t-105.5 155t-38.5 212.5v473q0 65 -4.5 104t-15.5 68t-35 42.5t-56 19t-86 5.5zM500 1487q0 44 30.5 74t73.5 30t74 -30t31 -74q0 -43 -31 -74t-74 -31t-73.5 31t-30.5 74zM907 1487 q0 44 31 74t74 30t73.5 -30t30.5 -74q0 -43 -30.5 -74t-73.5 -31t-74 31t-31 74z" />
<glyph horiz-adv-x="919" d="M80 145q0 64 32.5 113t95.5 83t142 56.5t185 38.5v2q0 109 -33 152t-101 43q-40 0 -75 -21.5t-35 -58.5q0 -40 -23.5 -64t-58.5 -24t-57.5 24t-22.5 64q0 73 89 118.5t208 45.5q170 0 247 -66.5t77 -212.5v-276q0 -78 45 -78q19 0 59 25l29 -56q-43 -33 -98.5 -54.5 t-92.5 -21.5q-134 0 -157 119q-92 -72 -142.5 -97.5t-116.5 -25.5q-78 0 -137 47t-59 125zM264 852l248 231q36 33 61.5 47.5t55.5 14.5q35 0 55.5 -24.5t20.5 -51.5t-19.5 -48.5t-42.5 -33.5l-367 -153zM283 170q0 -42 23.5 -62t58.5 -20q27 0 73.5 24.5t96.5 67.5v174 q-131 -34 -191.5 -73.5t-60.5 -110.5z" />
<glyph horiz-adv-x="919" d="M80 145q0 64 32.5 113t95.5 83t142 56.5t185 38.5v2q0 109 -33 152t-101 43q-40 0 -75 -21.5t-35 -58.5q0 -40 -23.5 -64t-58.5 -24t-57.5 24t-22.5 64q0 73 89 118.5t208 45.5q170 0 247 -66.5t77 -212.5v-276q0 -78 45 -78q19 0 59 25l29 -56q-43 -33 -98.5 -54.5 t-92.5 -21.5q-134 0 -157 119q-92 -72 -142.5 -97.5t-116.5 -25.5q-78 0 -137 47t-59 125zM137 1069q0 28 20.5 52t55.5 24q32 0 57 -14t60 -48l250 -231l-15 -18l-366 155q-62 32 -62 80zM283 170q0 -42 23.5 -62t58.5 -20q27 0 73.5 24.5t96.5 67.5v174 q-131 -34 -191.5 -73.5t-60.5 -110.5z" />
<glyph horiz-adv-x="919" d="M80 145q0 64 32.5 113t95.5 83t142 56.5t185 38.5v2q0 109 -33 152t-101 43q-40 0 -75 -21.5t-35 -58.5q0 -40 -23.5 -64t-58.5 -24t-57.5 24t-22.5 64q0 73 89 118.5t208 45.5q170 0 247 -66.5t77 -212.5v-276q0 -78 45 -78q19 0 59 25l29 -56q-43 -33 -98.5 -54.5 t-92.5 -21.5q-134 0 -157 119q-92 -72 -142.5 -97.5t-116.5 -25.5q-78 0 -137 47t-59 125zM143 866l293 318l293 -318l-31 -28l-262 170l-262 -170zM283 170q0 -42 23.5 -62t58.5 -20q27 0 73.5 24.5t96.5 67.5v174q-131 -34 -191.5 -73.5t-60.5 -110.5z" />
<glyph horiz-adv-x="919" d="M80 145q0 64 32.5 113t95.5 83t142 56.5t185 38.5v2q0 109 -33 152t-101 43q-40 0 -75 -21.5t-35 -58.5q0 -40 -23.5 -64t-58.5 -24t-57.5 24t-22.5 64q0 73 89 118.5t208 45.5q170 0 247 -66.5t77 -212.5v-276q0 -78 45 -78q19 0 59 25l29 -56q-43 -33 -98.5 -54.5 t-92.5 -21.5q-134 0 -157 119q-92 -72 -142.5 -97.5t-116.5 -25.5q-78 0 -137 47t-59 125zM137 940q0 44 31 74t74 30t73.5 -30t30.5 -74q0 -43 -30.5 -73.5t-73.5 -30.5t-74 30.5t-31 73.5zM283 170q0 -42 23.5 -62t58.5 -20q27 0 73.5 24.5t96.5 67.5v174 q-131 -34 -191.5 -73.5t-60.5 -110.5zM545 940q0 44 30.5 74t73.5 30t74 -30t31 -74q0 -43 -31 -73.5t-74 -30.5t-73.5 30.5t-30.5 73.5z" />
<glyph horiz-adv-x="919" d="M80 145q0 64 32.5 113t95.5 83t142 56.5t185 38.5v2q0 109 -33 152t-101 43q-40 0 -75 -21.5t-35 -58.5q0 -40 -23.5 -64t-58.5 -24t-57.5 24t-22.5 64q0 73 89 118.5t208 45.5q170 0 247 -66.5t77 -212.5v-276q0 -78 45 -78q19 0 59 25l29 -56q-43 -33 -98.5 -54.5 t-92.5 -21.5q-134 0 -157 119q-92 -72 -142.5 -97.5t-116.5 -25.5q-78 0 -137 47t-59 125zM125 838q0 104 46.5 171.5t113.5 67.5q32 0 76 -21t80.5 -46.5t79.5 -46.5t73 -21q79 0 104 117h41q0 -114 -46.5 -179t-123.5 -65q-36 0 -96.5 33.5t-117.5 67.5t-87 34 q-33 0 -62.5 -32.5t-41.5 -79.5h-39zM283 170q0 -42 23.5 -62t58.5 -20q27 0 73.5 24.5t96.5 67.5v174q-131 -34 -191.5 -73.5t-60.5 -110.5z" />
<glyph horiz-adv-x="919" d="M80 145q0 64 32.5 113t95.5 83t142 56.5t185 38.5v2q0 109 -33 152t-101 43q-40 0 -75 -21.5t-35 -58.5q0 -40 -23.5 -64t-58.5 -24t-57.5 24t-22.5 64q0 73 89 118.5t208 45.5q170 0 247 -66.5t77 -212.5v-276q0 -78 45 -78q19 0 59 25l29 -56q-43 -33 -98.5 -54.5 t-92.5 -21.5q-134 0 -157 119q-92 -72 -142.5 -97.5t-116.5 -25.5q-78 0 -137 47t-59 125zM254 1036q0 85 60 145t145 60t144 -60t59 -145t-59 -143.5t-144 -58.5t-145 59t-60 143zM283 170q0 -42 23.5 -62t58.5 -20q27 0 73.5 24.5t96.5 67.5v174q-131 -34 -191.5 -73.5 t-60.5 -110.5zM365 1036q0 -38 28 -65t66 -27t65 27t27 65t-27 66t-65 28t-66 -28t-28 -66z" />
<glyph horiz-adv-x="845" d="M102 324q0 176 110.5 284.5t268.5 108.5q120 0 191 -51t71 -115q0 -32 -22 -59t-70 -27q-32 0 -56 24t-24 58q0 46 -21 67t-52 21q-78 0 -111 -80t-33 -231q0 -123 54.5 -190.5t152.5 -67.5q97 0 207 94l37 -60q-129 -135 -307 -135h-17l-98 -100q37 -2 74.5 -14.5 t71.5 -36.5t55.5 -65t21.5 -93q0 -55 -33 -101.5t-79 -75t-105 -50.5t-98.5 -31t-73.5 -14v73q227 69 227 199q0 44 -41 72.5t-101 32t-128 -16.5v37l201 201q-123 34 -198 126.5t-75 215.5z" />
<glyph horiz-adv-x="905" d="M102 342q0 160 116 267.5t280 107.5q54 0 103 -15t83.5 -41t62.5 -60t40.5 -71.5t16.5 -76.5t-9 -74h-447q-10 -147 50.5 -226t150.5 -79q145 0 244 86l34 -60q-56 -59 -141.5 -97t-169.5 -38q-181 0 -297.5 109.5t-116.5 267.5zM322 852l247 231q36 33 61.5 47.5 t55.5 14.5q35 0 55.5 -24.5t20.5 -51.5t-19.5 -48.5t-42.5 -33.5l-366 -153zM362 469h273q5 65 -28.5 107t-98.5 42q-111 0 -146 -149z" />
<glyph horiz-adv-x="905" d="M102 342q0 160 116 267.5t280 107.5q54 0 103 -15t83.5 -41t62.5 -60t40.5 -71.5t16.5 -76.5t-9 -74h-447q-10 -147 50.5 -226t150.5 -79q145 0 244 86l34 -60q-56 -59 -141.5 -97t-169.5 -38q-181 0 -297.5 109.5t-116.5 267.5zM188 1069q0 28 20.5 52t55.5 24 q32 0 57 -14t60 -48l250 -231l-15 -18l-366 155q-62 32 -62 80zM362 469h273q5 65 -28.5 107t-98.5 42q-111 0 -146 -149z" />
<glyph horiz-adv-x="905" d="M102 342q0 160 116 267.5t280 107.5q54 0 103 -15t83.5 -41t62.5 -60t40.5 -71.5t16.5 -76.5t-9 -74h-447q-10 -147 50.5 -226t150.5 -79q145 0 244 86l34 -60q-56 -59 -141.5 -97t-169.5 -38q-181 0 -297.5 109.5t-116.5 267.5zM178 866l293 318l293 -318l-31 -28 l-262 170l-262 -170zM362 469h273q5 65 -28.5 107t-98.5 42q-111 0 -146 -149z" />
<glyph horiz-adv-x="905" d="M102 342q0 160 116 267.5t280 107.5q54 0 103 -15t83.5 -41t62.5 -60t40.5 -71.5t16.5 -76.5t-9 -74h-447q-10 -147 50.5 -226t150.5 -79q145 0 244 86l34 -60q-56 -59 -141.5 -97t-169.5 -38q-181 0 -297.5 109.5t-116.5 267.5zM164 940q0 44 30.5 74t73.5 30t74 -30 t31 -74q0 -43 -31 -73.5t-74 -30.5t-73.5 30.5t-30.5 73.5zM362 469h273q5 65 -28.5 107t-98.5 42q-111 0 -146 -149zM571 940q0 44 31 74t74 30t73.5 -30t30.5 -74q0 -43 -30.5 -73.5t-73.5 -30.5t-74 30.5t-31 73.5z" />
<glyph horiz-adv-x="677" d="M80 0v59q54 0 83.5 8t48.5 35.5t24.5 71.5t5.5 125v68q0 81 -5.5 124.5t-24.5 71t-48.5 35.5t-83.5 8v60l393 51v-418q0 -81 5.5 -125t24.5 -71.5t48.5 -35.5t83.5 -8v-59h-555zM172 852l248 231q36 33 61.5 47.5t55.5 14.5q35 0 55 -24.5t20 -51.5q0 -50 -61 -82 l-367 -153z" />
<glyph horiz-adv-x="677" d="M33 1069q0 28 20.5 52t55.5 24q32 0 56.5 -14t59.5 -48l250 -231l-14 -18l-367 155q-61 32 -61 80zM80 0v59q54 0 83.5 8t48.5 35.5t24.5 71.5t5.5 125v68q0 81 -5.5 124.5t-24.5 71t-48.5 35.5t-83.5 8v60l393 51v-418q0 -81 5.5 -125t24.5 -71.5t48.5 -35.5t83.5 -8 v-59h-555z" />
<glyph horiz-adv-x="677" d="M29 864l293 318l292 -318l-30 -28l-262 170l-263 -170zM80 0v59q54 0 83.5 8t48.5 35.5t24.5 71.5t5.5 125v68q0 81 -5.5 124.5t-24.5 71t-48.5 35.5t-83.5 8v60l393 51v-418q0 -81 5.5 -125t24.5 -71.5t48.5 -35.5t83.5 -8v-59h-555z" />
<glyph horiz-adv-x="677" d="M23 940q0 44 30.5 74t73.5 30t73.5 -30t30.5 -74q0 -43 -30.5 -73.5t-73.5 -30.5t-73.5 30.5t-30.5 73.5zM80 0v59q54 0 83.5 8t48.5 35.5t24.5 71.5t5.5 125v68q0 81 -5.5 124.5t-24.5 71t-48.5 35.5t-83.5 8v60l393 51v-418q0 -81 5.5 -125t24.5 -71.5t48.5 -35.5 t83.5 -8v-59h-555zM430 940q0 44 31 74t74 30t73.5 -30t30.5 -74q0 -43 -30.5 -73.5t-73.5 -30.5t-74 30.5t-31 73.5z" />
<glyph horiz-adv-x="1212" d="M80 0v59q54 0 83.5 8t48.5 35.5t24.5 71.5t5.5 125v68q0 81 -5.5 124.5t-24.5 71t-48.5 35.5t-83.5 8v60l358 51q22 -45 29 -117q95 117 256 117q137 0 227 -87t90 -218v-113q0 -80 6 -124.5t25 -72t49 -35.5t84 -8v-59h-473v59q28 0 44 16.5t26 70.5t10 153v86 q0 107 -33.5 162t-115.5 55q-70 0 -129.5 -54t-59.5 -149v-100q0 -81 5.5 -125t24.5 -71.5t48.5 -35.5t83.5 -8v-59h-555zM299 858q0 104 46.5 172t113.5 68q32 0 76 -21t80.5 -46.5t79.5 -46.5t73 -21q79 0 104 116h41q0 -114 -46 -178.5t-124 -64.5q-36 0 -96.5 34 t-117.5 67.5t-87 33.5q-33 0 -62.5 -33t-41.5 -80h-39z" />
<glyph horiz-adv-x="1030" d="M102 342q0 155 121.5 265t292.5 110q170 0 291 -110t121 -265t-121 -266t-291 -111t-292 111t-122 266zM352 852l248 231q36 33 61.5 47.5t55.5 14.5q35 0 55.5 -24.5t20.5 -51.5t-19.5 -48.5t-42.5 -33.5l-366 -153zM354 342q0 -123 41.5 -202t120.5 -79t120.5 79 t41.5 202t-41 201t-121 78t-121 -78t-41 -201z" />
<glyph horiz-adv-x="1030" d="M102 342q0 155 121.5 265t292.5 110q170 0 291 -110t121 -265t-121 -266t-291 -111t-292 111t-122 266zM180 1069q0 28 20.5 52t55.5 24q32 0 57 -14t60 -48l250 -231l-15 -18l-366 155q-62 32 -62 80zM354 342q0 -123 41.5 -202t120.5 -79t120.5 79t41.5 202t-41 201 t-121 78t-121 -78t-41 -201z" />
<glyph horiz-adv-x="1030" d="M102 342q0 155 121.5 265t292.5 110q170 0 291 -110t121 -265t-121 -266t-291 -111t-292 111t-122 266zM190 866l293 318l293 -318l-31 -28l-262 170l-262 -170zM354 342q0 -123 41.5 -202t120.5 -79t120.5 79t41.5 202t-41 201t-121 78t-121 -78t-41 -201z" />
<glyph horiz-adv-x="1030" d="M102 342q0 155 121.5 265t292.5 110q170 0 291 -110t121 -265t-121 -266t-291 -111t-292 111t-122 266zM207 940q0 44 30.5 74t73.5 30t74 -30t31 -74q0 -43 -31 -73.5t-74 -30.5t-73.5 30.5t-30.5 73.5zM354 342q0 -123 41.5 -202t120.5 -79t120.5 79t41.5 202t-41 201 t-121 78t-121 -78t-41 -201zM614 940q0 44 31 74t74 30t73.5 -30t30.5 -74q0 -43 -30.5 -73.5t-73.5 -30.5t-74 30.5t-31 73.5z" />
<glyph horiz-adv-x="1030" d="M102 342q0 155 121.5 265t292.5 110q170 0 291 -110t121 -265t-121 -266t-291 -111t-292 111t-122 266zM203 838q0 104 46 171.5t113 67.5q32 0 76 -21t81 -46.5t80 -46.5t73 -21q79 0 104 117h41q0 -114 -46.5 -179t-123.5 -65q-36 0 -96.5 33.5t-117.5 67.5t-87 34 q-33 0 -62.5 -32.5t-41.5 -79.5h-39zM354 342q0 -123 41.5 -202t120.5 -79t120.5 79t41.5 202t-41 201t-121 78t-121 -78t-41 -201z" />
<glyph horiz-adv-x="1140" d="M8 623v59h393v-383q0 -107 33.5 -163t114.5 -56q70 0 130 54.5t60 148.5v102q0 106 -13 154.5t-45 66t-103 17.5v59h391v-367q0 -64 4.5 -103.5t13.5 -68t29.5 -41.5t46.5 -18.5t70 -5.5v-62l-359 -51q-21 41 -31 119q-42 -54 -108 -86.5t-148 -32.5q-137 0 -227 88 t-90 219v113q0 81 -5.5 124.5t-24.5 71t-48.5 35t-83.5 7.5zM383 850l248 231q36 33 61.5 47.5t55.5 14.5q35 0 55 -24.5t20 -51.5q0 -50 -61 -82l-367 -154z" />
<glyph horiz-adv-x="1140" d="M8 623v59h393v-383q0 -107 33.5 -163t114.5 -56q70 0 130 54.5t60 148.5v102q0 106 -13 154.5t-45 66t-103 17.5v59h391v-367q0 -64 4.5 -103.5t13.5 -68t29.5 -41.5t46.5 -18.5t70 -5.5v-62l-359 -51q-21 41 -31 119q-42 -54 -108 -86.5t-148 -32.5q-137 0 -227 88 t-90 219v113q0 81 -5.5 124.5t-24.5 71t-48.5 35t-83.5 7.5zM209 1067q0 28 20.5 52t55.5 24q32 0 56.5 -14t59.5 -48l250 -231l-14 -19l-367 156q-61 32 -61 80z" />
<glyph horiz-adv-x="1140" d="M8 623v59h393v-383q0 -107 33.5 -163t114.5 -56q70 0 130 54.5t60 148.5v102q0 106 -13 154.5t-45 66t-103 17.5v59h391v-367q0 -64 4.5 -103.5t13.5 -68t29.5 -41.5t46.5 -18.5t70 -5.5v-62l-359 -51q-21 41 -31 119q-42 -54 -108 -86.5t-148 -32.5q-137 0 -227 88 t-90 219v113q0 81 -5.5 124.5t-24.5 71t-48.5 35t-83.5 7.5zM225 866l293 318l293 -318l-31 -28l-262 170l-262 -170z" />
<glyph horiz-adv-x="1140" d="M8 623v59h393v-383q0 -107 33.5 -163t114.5 -56q70 0 130 54.5t60 148.5v102q0 106 -13 154.5t-45 66t-103 17.5v59h391v-367q0 -64 4.5 -103.5t13.5 -68t29.5 -41.5t46.5 -18.5t70 -5.5v-62l-359 -51q-21 41 -31 119q-42 -54 -108 -86.5t-148 -32.5q-137 0 -227 88 t-90 219v113q0 81 -5.5 124.5t-24.5 71t-48.5 35t-83.5 7.5zM211 940q0 44 30.5 74t73.5 30t74 -30t31 -74q0 -43 -31 -73.5t-74 -30.5t-73.5 30.5t-30.5 73.5zM618 940q0 44 31 74t74 30t73.5 -30t30.5 -74q0 -43 -30.5 -73.5t-73.5 -30.5t-74 30.5t-31 73.5z" />
<glyph unicode="&#xa0;" horiz-adv-x="917" d="M59 836q0 54 45.5 90.5t96.5 21.5l229 -76l-84 250q-15 52 21.5 97t91.5 45t91 -45t21 -97l-84 -250l228 76q52 15 96.5 -21t44.5 -91t-44.5 -91.5t-96.5 -21.5l-223 72l110 -371l-127 -807h-33l-127 807l111 373l-225 -74q-51 -15 -96.5 22t-45.5 91z" />
<glyph unicode="&#xa1;" horiz-adv-x="819" d="M100 924q0 126 91 216.5t217 90.5q127 0 217 -90.5t90 -216.5q0 -128 -90 -218t-217 -90q-126 0 -217 90.5t-91 217.5zM248 924q0 -66 48 -114t114 -48t113.5 48t47.5 114t-47.5 113.5t-113.5 47.5t-114 -47.5t-48 -113.5z" />
<glyph unicode="&#xa2;" horiz-adv-x="948" d="M119 528q0 164 107 272.5t255 119.5v344h94v-346q98 -13 159 -61t61 -101q0 -32 -22.5 -59t-70.5 -27q-32 0 -55.5 24t-23.5 58q0 65 -48 84v-564q12 -2 37 -2q95 0 207 95l37 -60q-114 -117 -281 -133v-1v-1v-1v-1v-1v-1v-1v-1v-1v-1v-1v-1v-1v-1v-1v-1v-1v-1v-1v-1v-1 v-1v-1v-1v-1v-1v-1v-1v-1v-1v-1v-1v-1v-1v-1v-1v-1v-1v-1v-1v-1v-1v-1v-1v-1v-1v-1v-1v-1v-1v-1v-1v-1v-1v-1v-1v-1v-1v-1v-1v-1v-1v-1v-1v-1v-1v-1v-2v-1v-1v-1v-1v-1v-1v-1v-2v-1v-1v-1v-1v-1v-2v-1v-1v-1v-1v-1v-2v-1v-1v-1v-2v-1v-1v-1v-2v-1v-1v-1v-2v-1v-1v-1v-2v-1 v-1v-2v-1v-1v-2v-1v-1v-2v-1v-1v-2v-1v-1v-2v-1v-2v-1v-1v-2v-1v-2v-1v-1v-2v-1v-2v-1v-2v-1v-1v-2v-1v-2v-1v-2v-1v-2v-1v-2v-1v-2v-1v-2v-1v-2v-1v-2v-1v-2v-1v-2v-1v-2v-1v-2v-2v-1v-2v-1v-2v-1v-2v-2v-1v-2v-1v-2v-2v-1v-2v-1v-2v-2v-1v-2v-2v-1v-2v-2v-1v-2v-2v-1v-2 v-2v-1v-2v-2v-1v-2v-2v-1v-2v-2v-1v-2v-2v-2v-1v-2v-2v-2v-1v-2v-2v-2v-1v-2v-2v-2v-1v-2v-2v-2v-2v-1v-2v-2v-2v-2v-1v-2v-2v-2v-2v-2v-1v-2v-2v-2v-2v-2v-2v-1v-2v-2v-2v-9h-94v344q-155 15 -258.5 114t-103.5 240zM371 528q0 -75 29.5 -132t80.5 -89v514 q-52 -31 -81 -107.5t-29 -185.5z" />
<glyph unicode="&#xa3;" horiz-adv-x="1050" d="M57 592v90h168v166q0 212 83 314t263 102q115 0 186.5 -58t71.5 -123q0 -35 -20.5 -59.5t-56.5 -24.5q-41 0 -65 28.5t-32 62t-29.5 62t-58.5 28.5q-63 0 -86.5 -54t-23.5 -190v-254h205v-90h-205v-260q0 -81 5.5 -124.5t24 -71.5t48 -36t83.5 -8h113q69 0 111 8t67 30 t36 46.5t24 71.5l10 41h59l-18 -289h-957v59q54 0 83.5 8t48.5 35.5t24.5 71.5t5.5 125v293h-168z" />
<glyph unicode="&#xa5;" horiz-adv-x="620" d="M106 471q0 85 60 145t145 60t145 -60t60 -145t-60 -145t-145 -60t-145 60t-60 145z" />
<glyph unicode="&#xa7;" horiz-adv-x="1214" d="M63 0v59q54 0 83.5 8t48.5 35.5t24.5 71.5t5.5 125v324h-162v59q98 0 130 37.5t32 128.5q0 416 365 416q131 0 200.5 -68.5t69.5 -165.5q0 -61 -23 -117t-46 -114t-23 -123q0 -109 141 -187l101 -53q157 -89 157 -231q0 -78 -42.5 -134t-104 -81t-131.5 -25 q-34 0 -67.5 7.5t-57 18t-45.5 20.5t-36.5 15t-25 2.5t-15.5 -18t-5 -45.5h-59v299h59q0 -73 76.5 -143t173.5 -70q48 0 77 25.5t29 62.5t-37.5 75t-93.5 69l-114 61q-154 81 -154 246q0 54 23 116.5t50.5 110.5t50.5 107t23 106q0 73 -36 111.5t-103 38.5q-69 0 -107 -61 t-38 -183v-936h-394z" />
<glyph unicode="&#xa9;" horiz-adv-x="1398" d="M51 614q0 132 51.5 252.5t138.5 207.5t207 138.5t252 51.5t252 -51.5t206.5 -138.5t138 -207.5t51.5 -252.5t-51.5 -252t-138 -207t-206.5 -138.5t-252 -51.5q-176 0 -325.5 87t-236.5 236.5t-87 325.5zM145 614q0 -113 44 -216t118 -177t177 -118t216 -44t216 44 t177 118t118 177t44 216t-44 216t-118 177t-177 118t-216 44t-216 -44t-177 -118t-118 -177t-44 -216zM334 614q0 159 110 273t263 114q60 0 128.5 -31t106.5 -77q8 9 17 35t12 47h47v-289h-49q-47 238 -215 238q-101 0 -153 -87t-52 -223q0 -138 52 -223.5t153 -85.5 q167 0 215 240h49v-291h-47q-3 22 -12 47.5t-17 34.5q-38 -46 -106.5 -77.5t-128.5 -31.5q-154 0 -263.5 113.5t-109.5 273.5z" />
<glyph unicode="&#xaa;" horiz-adv-x="2074" d="M45 987l12 242h820l14 -242h-55l-11 37q-11 48 -27 70.5t-59 35.5t-127 13h-32v-443q0 -95 12 -139t41.5 -60t93.5 -16v-55h-516v55q49 0 75 7t43 32t22 64t5 112v443h-32q-84 0 -127.5 -13t-60 -35.5t-27.5 -70.5l-11 -37h-53zM979 430v55q49 0 75 7t42.5 32t21 64 t4.5 112v258q0 73 -4.5 112t-21 64.5t-42.5 32.5t-75 7v55h346l221 -518l223 518h302v-55q-93 0 -119.5 -39t-26.5 -177v-258q0 -72 5 -111.5t22 -64.5t43.5 -32t75.5 -7v-55h-465v55q49 0 75 7t43 32t22 64t5 112v285l-252 -586h-24l-265 613v-312q0 -72 5 -111.5t22 -64.5 t43.5 -32t75.5 -7v-55h-377z" />
<glyph unicode="&#xab;" horiz-adv-x="464" d="M-39 1151l248 231q36 33 61.5 47.5t55.5 14.5q35 0 55 -24.5t20 -51.5q0 -50 -61 -82l-367 -153z" />
<glyph unicode="&#xac;" horiz-adv-x="757" d="M41 1298q0 44 30.5 74.5t73.5 30.5t74 -30.5t31 -74.5q0 -43 -31 -73.5t-74 -30.5t-73.5 30.5t-30.5 73.5zM449 1298q0 44 30.5 74.5t73.5 30.5t73.5 -30.5t30.5 -74.5q0 -43 -30.5 -73.5t-73.5 -30.5t-73.5 30.5t-30.5 73.5z" />
<glyph unicode="&#xad;" horiz-adv-x="937" d="M170 104l78 117h-78v160h182l84 131h-266v160h371l133 205l94 -58l-96 -147h96v-160h-201l-86 -131h287v-160h-391l-113 -172z" />
<glyph unicode="&#xae;" horiz-adv-x="1675" d="M-111 0v59q116 0 171.5 30.5t107.5 131.5l520 1008h803l16 -289h-59l-10 41q-10 38 -18 58.5t-24 42.5t-39.5 32t-62 16.5t-94.5 6.5h-211v-551h10q55 0 89.5 2.5t63 10.5t43.5 20t25.5 35.5t13.5 53t3 74.5h59v-485h-59q0 54 -5.5 86t-18.5 56t-42 35t-68 15.5t-104 4.5 h-10v-162q0 -54 2.5 -89t11 -64t21 -44.5t36 -26t52.5 -13.5t74 -3h82q70 0 112.5 8t67 30t35 46.5t22.5 71.5l11 41h59l-16 -289h-1020v59q45 0 73.5 3t52 14t35.5 26t20 44t10.5 63.5t2.5 89.5v195h-323l-152 -295q-42 -83 -15.5 -111.5t142.5 -28.5v-59h-496zM457 586 h276v534z" />
<glyph unicode="&#xaf;" horiz-adv-x="1654" d="M145 614q0 131 54.5 251.5t145.5 207.5t217.5 139t264.5 52q151 0 283 -60l76 131l108 -55q-39 -65 -80 -133q137 -90 217 -230.5t80 -302.5q0 -131 -54.5 -251t-146 -207.5t-218 -139t-265.5 -51.5q-143 0 -278 58l-74 -127l-108 53l77 129q-138 91 -218.5 232 t-80.5 304zM420 614q0 -104 27 -207.5t81 -183.5q33 55 86 145t165.5 281t187.5 317.5t75 125.5q-85 73 -215 73q-84 0 -153 -33.5t-115.5 -89t-78.5 -128t-46 -148t-14 -152.5zM614 133q93 -70 213 -70q104 0 185.5 50.5t128.5 133t70.5 176t23.5 191.5q0 105 -26.5 207 t-80.5 178q0 1 -128.5 -215.5t-257.5 -433.5z" />
<glyph unicode="&#xb0;" horiz-adv-x="1460" d="M113 662q0 113 76.5 189.5t199.5 76.5q68 0 158.5 -52t167.5 -122q76 71 165 122.5t158 51.5q122 0 198.5 -76.5t76.5 -189.5q0 -112 -76.5 -189.5t-198.5 -77.5q-69 0 -158.5 52.5t-164.5 123.5q-76 -71 -167 -123.5t-159 -52.5q-123 0 -199.5 77.5t-76.5 189.5z M256 662q0 -54 36.5 -93t90.5 -39q41 0 101.5 42.5t109.5 89.5q-50 48 -110 90.5t-101 42.5q-55 0 -91 -39t-36 -94zM805 662q171 -132 237 -132q54 0 90.5 39t36.5 93q0 55 -36 94t-91 39q-65 0 -237 -133z" />
<glyph unicode="&#xb1;" horiz-adv-x="937" d="M102 0v160h287v266h-287v158h287v286h160v-286h287v-158h-287v-266h287v-160h-734z" />
<glyph unicode="&#xb2;" horiz-adv-x="937" d="M102 0v141h734v-141h-734zM102 549l674 307l33 -45l-342 -262l342 -262l-33 -47z" />
<glyph unicode="&#xb3;" horiz-adv-x="937" d="M102 0v141h734v-141h-734zM129 287l342 262l-342 262l33 45l674 -307l-674 -309z" />
<glyph unicode="&#xb5;" horiz-adv-x="1140" d="M8 -289q54 0 83.5 8t48.5 35.5t24.5 71.5t5.5 125v434q0 81 -5.5 124.5t-24.5 71t-48.5 35t-83.5 7.5v59h393v-383q0 -107 33.5 -163t114.5 -56q70 0 130 54.5t60 148.5v102q0 106 -13 154.5t-45 66t-103 17.5v59h391v-367q0 -64 4.5 -103.5t13.5 -68t29.5 -41.5 t46.5 -18.5t70 -5.5v-62l-359 -51q-21 41 -31 119q-42 -54 -108 -86.5t-148 -32.5q-41 0 -86 10v-24q0 -81 5.5 -125t24.5 -71.5t48.5 -35.5t83.5 -8v-59h-555v59z" />
<glyph unicode="&#xb6;" horiz-adv-x="1091" d="M119 350q0 103 60 192t159 140t211 51q111 0 174 -53q-16 506 -250 506q-36 0 -66 -10t-49.5 -25.5t-38 -33.5t-30.5 -34t-27 -27t-28 -12.5t-33 9.5q-48 31 -14 87q35 61 130 100q75 30 158 30q114 0 208.5 -64t154.5 -168.5t92.5 -232t32.5 -260.5q0 -136 -30.5 -242.5 t-76.5 -168.5t-106.5 -101.5t-114 -53.5t-105.5 -14q-170 0 -290.5 113t-120.5 272zM373 352q0 -286 157 -286q27 0 51 10t51 42.5t46.5 85.5t32 146.5t12.5 218.5q-22 33 -70.5 49.5t-103.5 16.5q-176 0 -176 -283z" />
<glyph unicode="&#xb7;" horiz-adv-x="1224" d="M100 -313l449 854l-445 653v35h988l18 -289h-59l-11 41q-13 48 -23.5 71.5t-35.5 46t-67 30.5t-111 8h-500l467 -688l-371 -705h455q69 0 111 8t67 30t36 46.5t24 71.5l10 41h59l-18 -289h-1043v35z" />
<glyph unicode="&#xb9;" horiz-adv-x="1034" d="M76 505q-1 72 39 124.5t118 52.5h594q61 0 79 33.5t5 79.5l37 8q19 -42 30.5 -83.5t11.5 -85.5t-15 -76.5t-54 -53.5t-100 -21h-88v-344q0 -84 39 -84q15 0 39 16t35 29l8 -63q-24 -31 -66 -51.5t-73 -20.5q-89 0 -134.5 46.5t-45.5 123.5v348h-129l-39 -374 q-8 -76 -38.5 -110t-70.5 -34q-54 0 -96 72l12 63q2 -2 9.5 -11.5t13.5 -16.5t14.5 -15.5t16.5 -13t14 -4.5q21 0 31.5 20.5t15.5 65.5l39 358h-101q-61 0 -79 -32t-5 -78l-34 -8q-32 68 -33 140z" />
<glyph unicode="&#xba;" horiz-adv-x="587" d="M-227 -354q-2 32 16 51.5t51 19.5q31 0 49.5 -18.5t27.5 -45t20 -53t35.5 -45t64.5 -18.5q44 0 72.5 25t46.5 98t18 197v991q0 212 83 314t263 102q115 0 186.5 -58t71.5 -123q0 -34 -21 -59t-57 -25q-34 0 -55 18.5t-31.5 45.5t-20 53.5t-28.5 45t-49 18.5 q-63 0 -86.5 -54t-23.5 -190v-1096q0 -201 -83.5 -294t-252.5 -93q-69 0 -127 19.5t-93.5 49t-55.5 62t-21 62.5z" />
<glyph unicode="&#xbb;" horiz-adv-x="919" d="M100 721q0 61 31 107.5t91 78.5t134.5 53.5t175.5 36.5v2q0 103 -30.5 144t-95.5 41q-37 0 -71 -21t-34 -55q0 -38 -23 -61t-57 -23q-31 0 -52.5 23.5t-21.5 60.5q0 69 85 112.5t198 43.5q161 0 233 -63t72 -202v-264q0 -34 12 -53.5t31 -19.5q30 0 58 24l28 -53 q-43 -32 -95 -52t-87 -20q-65 0 -103 29.5t-47 81.5q-89 -67 -136 -90t-109 -23q-75 0 -131 44.5t-56 117.5zM293 743q0 -39 22.5 -57t55.5 -18q27 0 70.5 22t90.5 64v166q-126 -34 -182.5 -71.5t-56.5 -105.5z" />
<glyph unicode="&#xbf;" horiz-adv-x="1030" d="M102 342q0 155 121.5 265t292.5 110q73 0 156 -27l53 88l82 -45l-53 -86q81 -52 127.5 -132.5t46.5 -172.5q0 -155 -121 -266t-291 -111q-82 0 -158 29l-55 -90l-82 45l53 88q-80 54 -126 133.5t-46 171.5zM354 342q0 -77 19 -145l233 385q-36 39 -90 39q-80 0 -121 -78 t-41 -201zM424 100q36 -39 92 -39q79 0 120.5 79t41.5 202q0 80 -19 145z" />
<glyph unicode="&#xc0;" horiz-adv-x="1050" d="M156 -18q0 184 127 295t331 135v110h91v-356q-174 0 -285 -65.5t-111 -178.5q0 -88 86 -155.5t217 -67.5q85 0 137 31t52 61q0 47 -70 47q-37 0 -63.5 25.5t-26.5 60.5q0 52 43.5 79.5t87.5 27.5q29 0 57.5 -9t56 -28.5t45 -55.5t17.5 -83q0 -73 -54.5 -129t-129.5 -82.5 t-150 -26.5q-107 0 -196.5 34t-145 88t-86 117.5t-30.5 125.5zM545 782q0 48 32.5 82.5t81.5 34.5q47 0 82 -35t35 -82q0 -49 -34.5 -83.5t-82.5 -34.5q-49 0 -81.5 34t-32.5 84z" />
<glyph unicode="&#xc1;" horiz-adv-x="673" d="M184 -223q0 63 16.5 123.5t37 113t40.5 176.5t25 297h70q5 -173 26 -297t42.5 -176.5t39 -113t17.5 -123.5t-48 -110.5t-112 -47.5t-109 47t-45 111zM223 782q0 48 33 82.5t82 34.5t84 -34.5t35 -82.5q0 -49 -34.5 -83.5t-84.5 -34.5q-49 0 -82 34t-33 84z" />
<glyph unicode="&#xc2;" horiz-adv-x="1167" d="M170 446v158h770v-368h-158v210h-612z" />
<glyph unicode="&#xc3;" horiz-adv-x="1124" d="M242 590l182 82l156 -387l458 1233h101l-582 -1563h-49z" />
<glyph unicode="&#xc4;" horiz-adv-x="690" d="M-176 -354q-2 32 16 51.5t51 19.5q31 0 50 -18.5t28 -45t19.5 -53t35 -45t64.5 -18.5q44 0 72.5 25t46.5 98t18 197v735h-168v90h168v166q0 212 83 314t263 102q115 0 186.5 -58t71.5 -123q0 -35 -20.5 -59.5t-56.5 -24.5q-41 0 -65 28.5t-32 62t-29.5 62t-58.5 28.5 q-63 0 -86.5 -54t-23.5 -190v-254h205v-90h-205v-752q0 -201 -83.5 -294t-252.5 -93q-69 0 -127 19.5t-93.5 49t-55.5 62t-21 62.5z" />
<glyph unicode="&#xc5;" horiz-adv-x="937" d="M195 193v172q6 8 18 19t47.5 29.5t71.5 18.5q41 0 135.5 -33.5t136.5 -33.5q35 0 69 16.5t51 33.5l17 17v-170q-6 -8 -18 -19.5t-47.5 -30.5t-71.5 -19q-41 0 -135.5 34.5t-136.5 34.5q-35 0 -69 -17t-51 -35zM195 467v170q6 8 18 19t47.5 30t71.5 19q41 0 135.5 -34 t136.5 -34q35 0 69 17t51 34l17 17v-170q-6 -8 -18 -19t-47.5 -30t-71.5 -19q-41 0 -135.5 34t-136.5 34q-35 0 -69 -17t-51 -34z" />
<glyph unicode="&#xc6;" horiz-adv-x="1157" d="M92 0l467 1264h62l444 -1264h-973zM242 106h553l-269 768z" />
<glyph unicode="&#xc7;" horiz-adv-x="1366" d="M154 549l692 444l31 -45l-359 -399l359 -399l-31 -48zM635 549l561 356l29 -49l-277 -307l277 -307l-29 -52z" />
<glyph unicode="&#xc8;" horiz-adv-x="1366" d="M139 242l277 307l-277 307l31 49l561 -356l-561 -359zM487 150l359 399l-359 399l33 45l692 -444l-692 -447z" />
<glyph unicode="&#xc9;" horiz-adv-x="1835" d="M176 115q0 54 36.5 92.5t90.5 38.5t93.5 -38.5t39.5 -92.5t-39.5 -92.5t-93.5 -38.5t-90.5 38.5t-36.5 92.5zM774 115q0 54 36.5 92.5t90.5 38.5t92.5 -38.5t38.5 -92.5t-38.5 -92.5t-92.5 -38.5t-90.5 38.5t-36.5 92.5zM1370 115q0 54 37.5 92.5t91.5 38.5t92.5 -38.5 t38.5 -92.5t-38.5 -92.5t-92.5 -38.5t-91.5 38.5t-37.5 92.5z" />
<glyph unicode="&#xca;" horiz-adv-x="477" />
<glyph unicode="&#xcb;" horiz-adv-x="1280" d="M-78 0v59q105 0 155 36t97 145l444 1024h44l446 -1024q25 -57 40.5 -85t43.5 -53.5t66.5 -34t99.5 -8.5v-59h-672v59q130 0 162 37t-8 119l-86 195h-406l-84 -195q-38 -83 -4.5 -119.5t158.5 -36.5v-59h-496zM330 1614q0 28 20.5 52t55.5 24q32 0 56.5 -14t59.5 -48 l250 -231l-14 -19l-367 156q-61 32 -61 80zM389 502h326l-164 375z" />
<glyph unicode="&#xcc;" horiz-adv-x="1280" d="M-78 0v59q105 0 155 36t97 145l444 1024h44l446 -1024q25 -57 40.5 -85t43.5 -53.5t66.5 -34t99.5 -8.5v-59h-672v59q130 0 162 37t-8 119l-86 195h-406l-84 -195q-38 -83 -4.5 -119.5t158.5 -36.5v-59h-496zM322 1393q0 104 46 171.5t113 67.5q40 0 99 -34t116.5 -67.5 t94.5 -33.5q79 0 104 117h41q0 -114 -46.5 -179t-123.5 -65q-36 0 -96.5 34t-117.5 67.5t-87 33.5q-33 0 -63 -32.5t-42 -79.5h-38zM389 502h326l-164 375z" />
<glyph unicode="&#xcd;" horiz-adv-x="1654" d="M145 614q0 131 54.5 251.5t145.5 207.5t217.5 139t264.5 52q139 0 265.5 -52t218 -139t146 -207.5t54.5 -251.5t-54.5 -251t-146 -207.5t-218 -139t-265.5 -51.5q-184 0 -341.5 87.5t-249 237t-91.5 324.5zM420 614q0 -77 14 -152.5t46 -148t78.5 -128t115.5 -89 t153 -33.5q104 0 185.5 50.5t128.5 133t70.5 176t23.5 191.5t-23.5 191.5t-70.5 176t-128.5 133t-185.5 50.5q-84 0 -153 -33.5t-115.5 -89t-78.5 -128t-46 -148t-14 -152.5zM498 1393q0 104 46 171.5t113 67.5q40 0 99 -34t116.5 -67.5t94.5 -33.5q79 0 104 117h41 q0 -114 -46.5 -179t-123.5 -65q-36 0 -96.5 34t-117.5 67.5t-87 33.5q-33 0 -62.5 -32.5t-41.5 -79.5h-39z" />
<glyph unicode="&#xce;" horiz-adv-x="2068" d="M145 614q0 131 54.5 251.5t145.5 207.5t217.5 139t264.5 52q117 0 220 -35h841l17 -289h-60l-10 41q-12 47 -22.5 71.5t-35.5 46.5t-67.5 30t-112.5 8h-311v-441h111q81 0 124 6t70.5 29t35 58.5t7.5 103.5h62v-485h-62q0 46 -3 74.5t-13.5 52.5t-25 36t-43.5 20 t-63 10.5t-89 2.5h-111v-272q0 -66 4.5 -104.5t15 -68t34 -42.5t55.5 -19t86 -6h184q70 0 112.5 8t67.5 30t35.5 46.5t22.5 71.5l10 41h59l-16 -289h-909q-103 -35 -220 -35q-184 0 -341.5 87.5t-249 237t-91.5 324.5zM420 614q0 -77 14 -152.5t46 -148t78.5 -128t115.5 -89 t153 -33.5q116 0 203 64v975q-81 63 -203 63q-84 0 -153 -33.5t-115.5 -89t-78.5 -128t-46 -148t-14 -152.5z" />
<glyph unicode="&#xcf;" horiz-adv-x="1466" d="M102 342q0 155 121.5 265t292.5 110q164 0 285 -105q115 105 276 105q64 0 120.5 -21.5t93 -57t61.5 -80t28 -90.5t-8 -89h-444q-11 -147 49.5 -226t150.5 -79q143 0 242 86l37 -60q-56 -59 -141.5 -97t-171.5 -38q-173 0 -293 107q-120 -107 -285 -107q-170 0 -292 111 t-122 266zM354 342q0 -123 41.5 -202t120.5 -79t120.5 79t41.5 202t-41 201t-121 78t-121 -78t-41 -201zM940 469h274q5 65 -29 107t-98 42q-112 0 -147 -149z" />
<glyph unicode="&#xd0;" horiz-adv-x="1075" d="M-2 340v158h1077v-158h-1077z" />
<glyph unicode="&#xd1;" horiz-adv-x="1366" d="M-2 340v158h1368v-158h-1368z" />
<glyph unicode="&#xd2;" horiz-adv-x="888" d="M117 1102q0 75 44.5 118.5t102.5 43.5q54 0 91.5 -38.5t37.5 -92.5t-37.5 -94t-91.5 -40h-10q17 -106 133 -225l-41 -41q-110 68 -169.5 171t-59.5 198zM492 1102q0 75 45 118.5t104 43.5q54 0 90.5 -38.5t36.5 -92.5q0 -55 -37 -94.5t-90 -39.5h-10q14 -103 133 -225 l-41 -41q-110 69 -170.5 171.5t-60.5 197.5z" />
<glyph unicode="&#xd3;" horiz-adv-x="888" d="M121 1133q0 54 37.5 92.5t91.5 38.5q58 0 102.5 -43.5t44.5 -118.5q0 -95 -59.5 -198t-169.5 -171l-41 41q116 119 133 225h-10q-54 0 -91.5 40t-37.5 94zM498 1133q0 54 36.5 92.5t90.5 38.5q59 0 104 -43.5t45 -118.5q0 -95 -60.5 -197.5t-170.5 -171.5l-41 41 q116 119 133 225h-10q-53 0 -90 39.5t-37 94.5z" />
<glyph unicode="&#xd4;" horiz-adv-x="514" d="M117 1102q0 75 44.5 118.5t102.5 43.5q54 0 91.5 -38.5t37.5 -92.5t-37.5 -94t-91.5 -40h-10q17 -106 133 -225l-41 -41q-110 68 -169.5 171t-59.5 198z" />
<glyph unicode="&#xd5;" horiz-adv-x="514" d="M121 1133q0 54 37.5 92.5t91.5 38.5q58 0 102.5 -43.5t44.5 -118.5q0 -95 -59.5 -198t-169.5 -171l-41 41q116 119 133 225h-10q-54 0 -91.5 40t-37.5 94z" />
<glyph unicode="&#xd6;" horiz-adv-x="937" d="M137 375v157h666v-157h-666zM354 170q0 46 34 82.5t79 36.5q47 0 84 -36.5t37 -82.5q0 -47 -37 -84t-84 -37q-45 0 -79 36.5t-34 84.5zM354 737q0 47 33.5 83t79.5 36q47 0 84 -36t37 -83t-37 -83t-84 -36q-46 0 -79.5 36t-33.5 83z" />
<glyph unicode="&#xd7;" horiz-adv-x="1011" d="M119 604l393 678l393 -678l-393 -698zM244 606l268 -487l266 487l-266 465z" />
<glyph unicode="&#xd8;" horiz-adv-x="733" d="M-68 623v59h449v-59q-65 0 -80 -23t12 -80l119 -266l111 266q24 56 10.5 79.5t-70.5 23.5v59h303v-59q-54 0 -88 -24t-57 -79l-412 -997q-33 -76 -77 -76q-29 0 -55.5 17.5t-26.5 58.5q0 26 16 47t37.5 37t51 55t50.5 92l88 217l-245 549q-43 103 -136 103zM74 940 q0 44 30.5 74t73.5 30t74 -30t31 -74q0 -43 -31 -73.5t-74 -30.5t-73.5 30.5t-30.5 73.5zM481 940q0 44 31 74t74 30t73.5 -30t30.5 -74q0 -43 -30.5 -73.5t-73.5 -30.5t-74 30.5t-31 73.5z" />
<glyph unicode="&#xd9;" horiz-adv-x="1296" d="M-68 1169v60h695v-60q-109 0 -136 -36.5t27 -118.5l230 -346l229 346q57 83 33 119t-144 36v60h496v-60q-64 0 -105 -8t-75 -33.5t-56 -53t-59 -85.5l-293 -442v-248q0 -66 4.5 -104.5t15 -68t34 -42.5t55.5 -19t86 -6v-59h-639v59q67 0 103 8t58.5 36t28.5 71t6 125v242 l-297 448q-72 109 -130.5 144.5t-166.5 35.5zM385 1485q0 44 30.5 74t73.5 30t74 -30t31 -74q0 -43 -31 -74t-74 -31t-73.5 31t-30.5 74zM793 1485q0 44 30.5 74t73.5 30t73.5 -30t30.5 -74q0 -43 -30.5 -74t-73.5 -31t-73.5 31t-30.5 74z" />
<glyph unicode="&#xda;" horiz-adv-x="712" d="M-70 14l756 1256l98 -53l-757 -1254z" />
<glyph unicode="&#xdb;" horiz-adv-x="1024" d="M115 207l112 112q-61 83 -61 197q0 108 61 197l-112 110l84 84l18.5 -18.5l36 -36t40.5 -41t15 -16.5q85 63 199 63q111 0 194 -61l113 112l86 -84l-113 -112q62 -96 62 -197q0 -105 -62 -197l113 -114l-86 -84l-113 115q-84 -62 -194 -62q-113 0 -197 62l-112 -115z M317 516q0 -78 56.5 -134t134.5 -56t134 56t56 134q0 77 -56 134t-134 57t-134.5 -57t-56.5 -134z" />
<glyph unicode="&#xdc;" horiz-adv-x="1024" d="M154 549l692 444l31 -45l-359 -399l359 -399l-31 -48z" />
<glyph unicode="&#xdd;" horiz-adv-x="1024" d="M147 150l359 399l-359 399l33 45l690 -444l-690 -447z" />
<glyph unicode="&#xde;" horiz-adv-x="1368" d="M57 592v90h168v143q0 216 117.5 327.5t300.5 111.5q149 0 247.5 -65.5t98.5 -176.5q0 -36 -27 -64t-65 -28q-35 0 -56 18.5t-27.5 46.5t-16 60t-21 60t-43.5 46.5t-82 18.5q-87 0 -140.5 -63.5t-53.5 -190.5v-244h706v-383q0 -81 5.5 -125t24.5 -71.5t48.5 -35.5t83.5 -8 v-59h-555v59q54 0 83.5 8t48.5 35.5t24.5 71.5t5.5 125v55q0 81 -5.5 124.5t-24.5 71t-48.5 35t-83.5 7.5h-313v-293q0 -81 5.5 -124.5t24 -71.5t48 -36t83.5 -8v-59h-555v59q54 0 83.5 8t48.5 35.5t24.5 71.5t5.5 125v293h-168z" />
<glyph unicode="&#xdf;" horiz-adv-x="1296" d="M57 592v90h168v166q0 416 365 416h518v-965q0 -81 5.5 -125t24.5 -71.5t48.5 -35.5t83.5 -8v-59h-555v59q54 0 83.5 8t48.5 35.5t24.5 71.5t5.5 125v590q0 163 -32 227t-130 64h-131q-75 0 -101 -56t-26 -188v-254h205v-90h-205v-293q0 -81 5.5 -124.5t24 -71.5t48 -36 t83.5 -8v-59h-555v59q54 0 83.5 8t48.5 35.5t24.5 71.5t5.5 125v293h-168z" />
<glyph unicode="&#xe0;" horiz-adv-x="917" d="M59 29q0 54 45.5 90.5t96.5 21.5l225 -73l-115 364l115 365l-225 -76q-51 -13 -96.5 24t-45.5 91q0 53 46 90t96 22l229 -78l-84 252q-15 51 22 96.5t91 45.5t90.5 -45.5t21.5 -96.5l-84 -252l228 78q52 15 96.5 -22t44.5 -90q0 -55 -44.5 -91.5t-96.5 -23.5l-223 74 l114 -361l-114 -364l223 71q52 15 96.5 -21t44.5 -91q0 -52 -45 -90t-96 -23l-228 78l84 -252q15 -49 -21.5 -94t-90.5 -45t-91 45t-22 94l84 252l-229 -78q-50 -15 -96 23t-46 90z" />
<glyph unicode="&#xe1;" horiz-adv-x="579" d="M160 477q0 54 37.5 93.5t91.5 39.5t92.5 -39.5t38.5 -93.5t-38.5 -92.5t-92.5 -38.5t-91.5 38.5t-37.5 92.5z" />
<glyph unicode="&#xe2;" horiz-adv-x="598" d="M133 115q0 54 37.5 92.5t91.5 38.5q58 0 103 -43t45 -117q0 -97 -60 -199.5t-170 -171.5l-41 41q116 123 133 228h-10q-54 0 -91.5 38.5t-37.5 92.5z" />
<glyph unicode="&#xe3;" horiz-adv-x="888" d="M121 115q0 54 37.5 92.5t91.5 38.5q58 0 102.5 -43t44.5 -117q0 -97 -59.5 -199.5t-169.5 -171.5l-41 41q116 119 133 228h-10q-54 0 -91.5 38.5t-37.5 92.5zM498 115q0 54 36.5 92.5t90.5 38.5q59 0 104 -43t45 -117q0 -96 -60.5 -199t-170.5 -172l-41 41 q116 119 133 228h-10q-54 0 -90.5 38.5t-36.5 92.5z" />
<glyph unicode="&#xe4;" horiz-adv-x="2320" d="M88 969q0 121 100 208t238 87t237 -87t99 -208q0 -120 -99 -206.5t-237 -86.5t-238 86.5t-100 206.5zM291 969q0 -83 35.5 -149t99.5 -66t98.5 66t34.5 149q0 84 -34.5 149.5t-98.5 65.5t-99.5 -65.5t-35.5 -149.5zM365 6l757 1264l80 -45l-756 -1262zM801 262 q0 120 99 206.5t237 86.5t237 -86.5t99 -206.5q0 -121 -99 -208t-237 -87t-237 87t-99 208zM1001 262q0 -84 36 -149.5t100 -65.5t99.5 65.5t35.5 149.5q0 83 -35.5 149t-99.5 66t-100 -66.5t-36 -148.5zM1561 262q0 120 98.5 206.5t236.5 86.5t237 -86.5t99 -206.5 q0 -121 -99 -208t-237 -87t-236.5 86.5t-98.5 208.5zM1761 262q0 -84 35.5 -149.5t99.5 -65.5t100 65.5t36 149.5q0 82 -36 148.5t-100 66.5t-99.5 -66t-35.5 -149z" />
<glyph unicode="&#xe5;" horiz-adv-x="1280" d="M-78 0v59q105 0 155 36t97 145l444 1024h44l446 -1024q25 -57 40.5 -85t43.5 -53.5t66.5 -34t99.5 -8.5v-59h-672v59q130 0 162 37t-8 119l-86 195h-406l-84 -195q-38 -83 -4.5 -119.5t158.5 -36.5v-59h-496zM350 1411l293 318l293 -318l-31 -29l-262 170l-262 -170z M389 502h326l-164 375z" />
<glyph unicode="&#xe6;" horiz-adv-x="1312" d="M78 0v59q45 0 73.5 3t52 14t35.5 26t20 44t10.5 63.5t2.5 89.5v631q0 55 -2.5 89.5t-10.5 63.5t-20 44t-35.5 25.5t-52 13.5t-73.5 3v60h1055l16 -289h-59l-11 41q-10 39 -18 59t-23.5 42t-39 32t-62 16.5t-94.5 6.5h-314v-441h113q65 0 104 4.5t68 15.5t42 35t18.5 56 t5.5 86h59v-485h-59q0 45 -3 74.5t-13.5 53t-25.5 35.5t-43.5 20t-63 10.5t-89.5 2.5h-113v-272q0 -54 2.5 -89t11 -64t21 -44.5t36 -26t52.5 -13.5t74 -3h184q70 0 112.5 8t67.5 30t35.5 46.5t22.5 71.5l10 41h60l-17 -289h-1122zM365 1411l292 318l293 -318l-30 -29 l-263 170l-262 -170z" />
<glyph unicode="&#xe7;" horiz-adv-x="1280" d="M-78 0v59q105 0 155 36t97 145l444 1024h44l446 -1024q25 -57 40.5 -85t43.5 -53.5t66.5 -34t99.5 -8.5v-59h-672v59q130 0 162 37t-8 119l-86 195h-406l-84 -195q-38 -83 -4.5 -119.5t158.5 -36.5v-59h-496zM389 502h326l-164 375zM551 1397l248 231q37 33 61.5 47.5 t54.5 14.5q35 0 55.5 -24.5t20.5 -51.5q0 -50 -61 -82l-367 -154z" />
<glyph unicode="&#xe8;" horiz-adv-x="1312" d="M78 0v59q45 0 73.5 3t52 14t35.5 26t20 44t10.5 63.5t2.5 89.5v631q0 55 -2.5 89.5t-10.5 63.5t-20 44t-35.5 25.5t-52 13.5t-73.5 3v60h1055l16 -289h-59l-11 41q-10 39 -18 59t-23.5 42t-39 32t-62 16.5t-94.5 6.5h-314v-441h113q65 0 104 4.5t68 15.5t42 35t18.5 56 t5.5 86h59v-485h-59q0 45 -3 74.5t-13.5 53t-25.5 35.5t-43.5 20t-63 10.5t-89.5 2.5h-113v-272q0 -54 2.5 -89t11 -64t21 -44.5t36 -26t52.5 -13.5t74 -3h184q70 0 112.5 8t67.5 30t35.5 46.5t22.5 71.5l10 41h60l-17 -289h-1122zM342 1485q0 44 30.5 74t73.5 30t74 -30 t31 -74q0 -43 -31 -74t-74 -31t-73.5 31t-30.5 74zM750 1485q0 44 30.5 74t73.5 30t73.5 -30t30.5 -74q0 -43 -30.5 -74t-73.5 -31t-73.5 31t-30.5 74z" />
<glyph unicode="&#xe9;" horiz-adv-x="1312" d="M78 0v59q45 0 73.5 3t52 14t35.5 26t20 44t10.5 63.5t2.5 89.5v631q0 55 -2.5 89.5t-10.5 63.5t-20 44t-35.5 25.5t-52 13.5t-73.5 3v60h1055l16 -289h-59l-11 41q-10 39 -18 59t-23.5 42t-39 32t-62 16.5t-94.5 6.5h-314v-441h113q65 0 104 4.5t68 15.5t42 35t18.5 56 t5.5 86h59v-485h-59q0 45 -3 74.5t-13.5 53t-25.5 35.5t-43.5 20t-63 10.5t-89.5 2.5h-113v-272q0 -54 2.5 -89t11 -64t21 -44.5t36 -26t52.5 -13.5t74 -3h184q70 0 112.5 8t67.5 30t35.5 46.5t22.5 71.5l10 41h60l-17 -289h-1122zM367 1614q0 28 20 52t55 24q32 0 57 -14 t60 -48l250 -231l-14 -19l-367 156q-61 32 -61 80z" />
<glyph unicode="&#xea;" horiz-adv-x="768" d="M78 0v59q45 0 73.5 3t52 14t35.5 26t20 44t10.5 63.5t2.5 89.5v631q0 55 -2.5 89.5t-10.5 63.5t-20 44t-35.5 25.5t-52 13.5t-73.5 3v60h647v-60q-54 0 -86 -5.5t-56 -19t-35 -42.5t-15.5 -68t-4.5 -104v-631q0 -54 2.5 -89t11 -64t21 -44.5t36 -26t52.5 -13.5t74 -3v-59 h-647zM270 1397l248 231q36 33 61.5 47.5t55.5 14.5q35 0 55.5 -24.5t20.5 -51.5t-19.5 -48.5t-42.5 -33.5l-366 -154z" />
<glyph unicode="&#xeb;" horiz-adv-x="768" d="M78 0v59q45 0 73.5 3t52 14t35.5 26t20 44t10.5 63.5t2.5 89.5v631q0 55 -2.5 89.5t-10.5 63.5t-20 44t-35.5 25.5t-52 13.5t-73.5 3v60h647v-60q-54 0 -86 -5.5t-56 -19t-35 -42.5t-15.5 -68t-4.5 -104v-631q0 -54 2.5 -89t11 -64t21 -44.5t36 -26t52.5 -13.5t74 -3v-59 h-647zM82 1411l293 318l293 -318l-31 -29l-262 170l-262 -170z" />
<glyph unicode="&#xec;" horiz-adv-x="768" d="M72 1485q0 44 30.5 74t73.5 30t74 -30t31 -74q0 -43 -31 -74t-74 -31t-73.5 31t-30.5 74zM78 0v59q45 0 73.5 3t52 14t35.5 26t20 44t10.5 63.5t2.5 89.5v631q0 55 -2.5 89.5t-10.5 63.5t-20 44t-35.5 25.5t-52 13.5t-73.5 3v60h647v-60q-54 0 -86 -5.5t-56 -19 t-35 -42.5t-15.5 -68t-4.5 -104v-631q0 -54 2.5 -89t11 -64t21 -44.5t36 -26t52.5 -13.5t74 -3v-59h-647zM479 1485q0 44 31 74t74 30t73.5 -30t30.5 -74q0 -43 -30.5 -74t-73.5 -31t-74 31t-31 74z" />
<glyph unicode="&#xed;" horiz-adv-x="768" d="M76 1614q0 28 20.5 52t55.5 24q32 0 56.5 -14t59.5 -48l250 -231l-14 -19l-367 156q-61 32 -61 80zM78 0v59q45 0 73.5 3t52 14t35.5 26t20 44t10.5 63.5t2.5 89.5v631q0 55 -2.5 89.5t-10.5 63.5t-20 44t-35.5 25.5t-52 13.5t-73.5 3v60h647v-60q-54 0 -86 -5.5t-56 -19 t-35 -42.5t-15.5 -68t-4.5 -104v-631q0 -54 2.5 -89t11 -64t21 -44.5t36 -26t52.5 -13.5t74 -3v-59h-647z" />
<glyph unicode="&#xee;" horiz-adv-x="1654" d="M145 614q0 131 54.5 251.5t145.5 207.5t217.5 139t264.5 52q139 0 265.5 -52t218 -139t146 -207.5t54.5 -251.5t-54.5 -251t-146 -207.5t-218 -139t-265.5 -51.5q-184 0 -341.5 87.5t-249 237t-91.5 324.5zM420 614q0 -77 14 -152.5t46 -148t78.5 -128t115.5 -89 t153 -33.5q104 0 185.5 50.5t128.5 133t70.5 176t23.5 191.5t-23.5 191.5t-70.5 176t-128.5 133t-185.5 50.5q-84 0 -153 -33.5t-115.5 -89t-78.5 -128t-46 -148t-14 -152.5zM739 1397l248 231q36 33 61.5 47.5t55.5 14.5q35 0 55.5 -24.5t20.5 -51.5t-19.5 -48.5 t-42.5 -33.5l-366 -154z" />
<glyph unicode="&#xef;" horiz-adv-x="1654" d="M145 614q0 131 54.5 251.5t145.5 207.5t217.5 139t264.5 52q139 0 265.5 -52t218 -139t146 -207.5t54.5 -251.5t-54.5 -251t-146 -207.5t-218 -139t-265.5 -51.5q-184 0 -341.5 87.5t-249 237t-91.5 324.5zM420 614q0 -77 14 -152.5t46 -148t78.5 -128t115.5 -89 t153 -33.5q104 0 185.5 50.5t128.5 133t70.5 176t23.5 191.5t-23.5 191.5t-70.5 176t-128.5 133t-185.5 50.5q-84 0 -153 -33.5t-115.5 -89t-78.5 -128t-46 -148t-14 -152.5zM543 1407l293 317l292 -317l-30 -29l-262 170l-263 -170z" />
<glyph unicode="&#xf0;" />
<glyph unicode="&#xf1;" horiz-adv-x="1654" d="M145 614q0 131 54.5 251.5t145.5 207.5t217.5 139t264.5 52q139 0 265.5 -52t218 -139t146 -207.5t54.5 -251.5t-54.5 -251t-146 -207.5t-218 -139t-265.5 -51.5q-184 0 -341.5 87.5t-249 237t-91.5 324.5zM420 614q0 -77 14 -152.5t46 -148t78.5 -128t115.5 -89 t153 -33.5q104 0 185.5 50.5t128.5 133t70.5 176t23.5 191.5t-23.5 191.5t-70.5 176t-128.5 133t-185.5 50.5q-84 0 -153 -33.5t-115.5 -89t-78.5 -128t-46 -148t-14 -152.5zM473 1614q0 28 20.5 52t55.5 24q32 0 57 -14t60 -48l249 -231l-14 -19l-366 156q-62 32 -62 80z " />
<glyph unicode="&#xf2;" horiz-adv-x="1533" d="M63 1169v60h650v-60q-68 0 -104 -7.5t-58.5 -36t-28.5 -71t-6 -124.5v-451q0 -189 89 -288t229 -99q138 0 219.5 98t81.5 289v451q0 55 -2.5 89.5t-10.5 63.5t-20.5 44t-36 25.5t-53 13.5t-74.5 3v60h502v-60q-54 0 -86 -6t-55.5 -19t-34 -42t-15 -67.5t-4.5 -104.5v-473 q0 -118 -39 -212.5t-106.5 -155t-156.5 -92.5t-191 -32q-103 0 -192 32t-156 92.5t-105.5 155t-38.5 212.5v473q0 65 -4.5 104t-15.5 68t-35 42.5t-56 19t-86 5.5zM715 1397l248 231q37 33 61.5 47.5t54.5 14.5q35 0 55.5 -24.5t20.5 -51.5q0 -50 -61 -82l-367 -154z" />
<glyph unicode="&#xf3;" horiz-adv-x="1533" d="M63 1169v60h650v-60q-68 0 -104 -7.5t-58.5 -36t-28.5 -71t-6 -124.5v-451q0 -189 89 -288t229 -99q138 0 219.5 98t81.5 289v451q0 55 -2.5 89.5t-10.5 63.5t-20.5 44t-36 25.5t-53 13.5t-74.5 3v60h502v-60q-54 0 -86 -6t-55.5 -19t-34 -42t-15 -67.5t-4.5 -104.5v-473 q0 -118 -39 -212.5t-106.5 -155t-156.5 -92.5t-191 -32q-103 0 -192 32t-156 92.5t-105.5 155t-38.5 212.5v473q0 65 -4.5 104t-15.5 68t-35 42.5t-56 19t-86 5.5zM537 1411l292 318l293 -318l-30 -29l-263 170l-262 -170z" />
<glyph unicode="&#xf4;" horiz-adv-x="1533" d="M63 1169v60h650v-60q-68 0 -104 -7.5t-58.5 -36t-28.5 -71t-6 -124.5v-451q0 -189 89 -288t229 -99q138 0 219.5 98t81.5 289v451q0 55 -2.5 89.5t-10.5 63.5t-20.5 44t-36 25.5t-53 13.5t-74.5 3v60h502v-60q-54 0 -86 -6t-55.5 -19t-34 -42t-15 -67.5t-4.5 -104.5v-473 q0 -118 -39 -212.5t-106.5 -155t-156.5 -92.5t-191 -32q-103 0 -192 32t-156 92.5t-105.5 155t-38.5 212.5v473q0 65 -4.5 104t-15.5 68t-35 42.5t-56 19t-86 5.5zM428 1614q0 28 20.5 52t55.5 24q32 0 57 -14t60 -48l249 -231l-14 -19l-367 156q-61 32 -61 80z" />
<glyph unicode="&#xf5;" horiz-adv-x="677" d="M80 0v59q54 0 83.5 8t48.5 35.5t24.5 71.5t5.5 125v68q0 81 -5.5 124.5t-24.5 71t-48.5 35.5t-83.5 8v60l393 51v-418q0 -81 5.5 -125t24.5 -71.5t48.5 -35.5t83.5 -8v-59h-555z" />
<glyph unicode="&#xf6;" horiz-adv-x="700" d="M76 1098l293 317l293 -317l-31 -29l-262 170l-263 -170z" />
<glyph unicode="&#xf7;" horiz-adv-x="614" d="M6 1130q0 104 46.5 172t113.5 68q32 0 76 -21t80.5 -46.5t79.5 -46.5t73 -21q80 0 105 117h41q0 -114 -46.5 -179t-123.5 -65q-36 0 -96.5 34t-117.5 67.5t-87 33.5q-33 0 -63 -33t-42 -80h-39z" />
<glyph unicode="&#xf8;" horiz-adv-x="528" d="M45 1272v47h371v-47h-371z" />
<glyph unicode="&#xf9;" horiz-adv-x="630" d="M104 1356h33q15 -44 55 -71.5t91 -27.5q50 0 89.5 28t53.5 71h33q0 -83 -50 -134t-126 -51q-77 0 -128 51t-51 134z" />
<glyph unicode="&#xfa;" horiz-adv-x="634" d="M168 1276q0 33 23.5 56.5t56.5 23.5t56.5 -23.5t23.5 -56.5q0 -34 -23 -58t-57 -24t-57 24t-23 58z" />
<glyph unicode="&#xfb;" horiz-adv-x="456" d="M57 1235q0 85 60 145t145 60t144 -60t59 -145t-59 -144t-144 -59t-145 59t-60 144zM168 1235q0 -38 28 -65t66 -27t65 27t27 65t-27 66t-65 28t-66 -28t-28 -66z" />
<glyph unicode="&#xfc;" horiz-adv-x="446" d="M33 -154l289 287h118l-198 -203q37 -2 74 -14.5t71.5 -36.5t56 -65t21.5 -93q0 -55 -33 -101.5t-79 -75t-105 -50.5t-98.5 -31t-73.5 -14v74q227 69 227 198q0 65 -86 92.5t-184 -3.5v36z" />
<glyph unicode="&#xfd;" horiz-adv-x="671" d="M72 1159l190 178q31 27 49.5 38t42.5 11q27 0 42.5 -18.5t15.5 -40.5q0 -37 -47 -61l-283 -121zM311 1159l191 178q30 27 48.5 38t41.5 11q27 0 43 -19t16 -40t-15.5 -37t-33.5 -24l-280 -121z" />
<glyph unicode="&#xfe;" horiz-adv-x="454" d="M37 -129q0 96 88.5 160.5t185.5 34.5l23 -5l-17 -34h-18q-52 0 -94.5 -33.5t-42.5 -77.5q0 -49 28.5 -84t81.5 -35q85 0 109 60l20 41l17 -52l4 -6q-10 -71 -66.5 -113t-134.5 -42q-79 0 -131.5 53.5t-52.5 132.5z" />
<glyph unicode="&#xff;" horiz-adv-x="696" d="M-6 1415l33 29l262 -170l262 170l31 -29l-293 -317z" />
<glyph unicode="&#x152;" horiz-adv-x="1030" d="M123 907q0 146 116 251.5t277 105.5t276 -105.5t115 -251.5q0 -148 -115 -253t-276 -105t-277 105t-116 253zM362 907q0 -116 39 -191t115 -75q75 0 114.5 75.5t39.5 190.5q0 114 -40 190.5t-114 76.5q-75 0 -114.5 -76t-39.5 -191z" />
<glyph unicode="&#x153;" horiz-adv-x="1177" d="M119 774q0 119 58.5 224t168 171t244.5 66q101 0 189.5 -38.5t149 -102.5t95.5 -147.5t35 -172.5q0 -136 -79.5 -253t-209.5 -169v-157h18q99 0 132 32.5t49 122.5l6 41h65l-12 -391h-356v418q47 17 81 57t51 93t24.5 104.5t7.5 107.5q0 53 -5.5 101t-22 99.5t-43 89 t-71.5 61.5t-104 24q-60 0 -105.5 -24t-72 -61.5t-43.5 -89t-23 -99.5t-6 -101q0 -56 7.5 -108t25 -104.5t51 -92.5t80.5 -57v-418h-354l-13 391h66l8 -41q9 -47 17 -71t26.5 -46t50.5 -30t84 -8h19v155q-131 54 -210 170.5t-79 253.5z" />
<glyph unicode="&#x178;" horiz-adv-x="1290" d="M80 145q0 64 32.5 113t95.5 83t142 56.5t185 38.5v2q0 109 -33 152t-101 43q-40 0 -75 -21.5t-35 -58.5q0 -40 -23.5 -64t-58.5 -24t-57.5 24t-22.5 64q0 73 89 118.5t208 45.5q171 0 246 -66q106 66 229 66q64 0 120.5 -21.5t93 -57t61.5 -80t28 -90.5t-8 -89h-444 q-11 -147 49.5 -226t150.5 -79q147 0 242 86l37 -60q-56 -59 -141.5 -97t-171.5 -38q-113 0 -203 44t-144 120q-91 -84 -159.5 -120t-135.5 -36q-78 0 -137 47t-59 125zM283 170q0 -42 23.5 -62t58.5 -20q27 0 73.5 24.5t96.5 67.5v174q-131 -34 -191.5 -73.5t-60.5 -110.5z M764 469h274q5 65 -29 107t-98 42q-112 0 -147 -149z" />
<glyph unicode="&#x2000;" horiz-adv-x="895" />
<glyph unicode="&#x2001;" horiz-adv-x="1790" />
<glyph unicode="&#x2002;" horiz-adv-x="895" />
<glyph unicode="&#x2003;" horiz-adv-x="1790" />
<glyph unicode="&#x2004;" horiz-adv-x="596" />
<glyph unicode="&#x2005;" horiz-adv-x="447" />
<glyph unicode="&#x2006;" horiz-adv-x="298" />
<glyph unicode="&#x2007;" horiz-adv-x="298" />
<glyph unicode="&#x2008;" horiz-adv-x="223" />
<glyph unicode="&#x2009;" horiz-adv-x="358" />
<glyph unicode="&#x200a;" horiz-adv-x="99" />
<glyph unicode="&#x2010;" horiz-adv-x="937" d="M170 340v158h598v-158h-598z" />
<glyph unicode="&#x2011;" horiz-adv-x="937" d="M170 340v158h598v-158h-598z" />
<glyph unicode="&#x2012;" horiz-adv-x="937" d="M170 340v158h598v-158h-598z" />
<glyph unicode="&#x2013;" horiz-adv-x="1363" d="M170 340v158h1024v-158h-1024z" />
<glyph unicode="&#x2014;" horiz-adv-x="2387" d="M170 340v158h2048v-158h-2048z" />
<glyph unicode="&#x202f;" horiz-adv-x="358" />
<glyph unicode="&#x205f;" horiz-adv-x="447" />
<glyph unicode="&#x20ac;" horiz-adv-x="815" d="M127 -35v299h59q0 -73 76.5 -143t173.5 -70q47 0 77 30t30 69q0 73 -131 143l-115 61q-75 40 -114.5 103t-39.5 123q0 80 44.5 142.5t109.5 92.5q-75 40 -114.5 102.5t-39.5 122.5q0 55 23 99.5t59.5 70.5t77.5 40t82 14t81.5 -8t63.5 -16t42 -12t26.5 4t7.5 32h60v-238 h-60q0 62 -60 109t-128 47q-40 0 -70.5 -27.5t-30.5 -60.5q0 -34 33.5 -66t108.5 -72l100 -55q76 -49 117 -108t41 -119q0 -77 -41 -142t-105 -102q146 -96 146 -217q0 -115 -85 -181.5t-194 -66.5q-34 0 -67.5 7.5t-57 18t-45.5 20.5t-36.5 15t-25 2.5t-15.5 -18t-5 -45.5 h-59zM317 651q0 -80 142 -155l18 -11q31 11 48.5 39t17.5 68q0 92 -131 162q-40 -2 -67.5 -30.5t-27.5 -72.5z" />
<glyph unicode="&#xe000;" horiz-adv-x="686" d="M0 0v686h686v-686h-686z" />
</font>
</defs>
</svg>
